<svg t="1616382109260" class="icon" viewBox="0 0 1024 1024" version="1.1" xmlns="http://www.w3.org/2000/svg" p-id="827" width="200" height="200"><path d="M516.89 476.12l322.65-186.28a9.77 9.77 0 0 0 0-16.93L516.89 86.63a9.77 9.77 0 0 0-9.78 0L184.46 272.91a9.77 9.77 0 0 0 0 16.93l322.66 186.28a9.75 9.75 0 0 0 9.77 0zM553.42 556.32v372.57a9.77 9.77 0 0 0 14.66 8.46l322.65-186.28a9.78 9.78 0 0 0 4.88-8.47V370.05a9.77 9.77 0 0 0-14.61-8.47L558.3 547.85a9.79 9.79 0 0 0-4.88 8.47z" fill="#2F3240" p-id="828"></path><path d="M465.71 547.85L143.05 361.58a9.78 9.78 0 0 0-14.66 8.47V742.6a9.78 9.78 0 0 0 4.88 8.47l322.66 186.29a9.78 9.78 0 0 0 14.67-8.47V556.32a9.8 9.8 0 0 0-4.89-8.47z" fill="#4CC9C5" p-id="829"></path></svg>
