<?xml version="1.0" standalone="no"?><!DOCTYPE svg PUBLIC "-//W3C//DTD SVG 1.1//EN" "http://www.w3.org/Graphics/SVG/1.1/DTD/svg11.dtd"><svg t="1688560800025" class="icon" viewBox="0 0 1024 1024" version="1.1" xmlns="http://www.w3.org/2000/svg" p-id="1607" xmlns:xlink="http://www.w3.org/1999/xlink" width="200" height="200"><path d="M482.52661192 62.23904932c-1.92645703 0.18280283-8.08549541 0.80151855-13.63987882 1.23743232-127.82113506 11.53061982-247.54271221 80.47528682-323.37762802 186.45855293-42.22737862 58.94677617-69.23996367 125.7962458-79.44878057 196.59706171C62.474583 471.25261865 62.02460762 478.55065713 62.02460762 512.05976211s0.43591377 40.82120508 4.04977852 65.5276667C90.52773682 746.56725049 210.78365996 888.54854785 373.88567833 941.13942207c29.20621553 9.42135997 60.00140654 15.83350927 95.00105477 19.70048496 13.63987881 1.50460488 72.58665498 1.50460488 86.21247218 0 60.43731943-6.67932187 111.65014424-21.62694199 162.13175858-47.40209473 7.74801387-3.96540791 9.23855713-5.02003828 8.18392765-5.90592743-0.70308633-0.52028437-33.69190781-44.75848974-73.27568057-98.23525226l-71.95387764-97.19468524-90.17788096-133.44582657c-49.62384844-73.34598867-90.4309919-133.33333359-90.78253505-133.33333359-0.35154317-0.09843223-0.70308633 59.19988711-0.88588916 131.57561689-0.26717256 126.75244307-0.35154317 131.85685195-1.94051865 134.8520001-2.2780002 4.30288945-4.0357169 6.06060615-7.73395226 8.00112481-2.81234619 1.40617354-5.27314922 1.67334609-18.56148485 1.67334609h-15.21479268l-4.04977852-2.55923526a16.452225 16.452225 0 0 1-5.90592744-6.41214931l-1.8280248-3.96540792L343.25922763 532.11179112l0.26717344-176.44660138 2.72797559-3.41700029c1.40617354-1.85614893 4.38726006-4.21851972 6.49651992-5.37158145 3.61386474-1.7577167 5.02003828-1.94051865 20.24889258-1.94051865 17.94276914 0 20.92385567 0.70308633 25.5923499 5.80749522 1.32180293 1.40617354 50.14413281 74.94902666 108.55656387 163.52386963 58.41243018 88.57484385 138.28306289 209.5197917 177.5293541 268.88842002l71.25079044 107.92378565 3.61386474-2.37643243c31.9201295-20.75511533 65.71046865-50.31287315 92.45588203-81.09400254 56.92188692-65.35892549 93.59488125-145.04675537 105.91295713-230.02179609 3.61386474-24.70646162 4.04977852-32.0045001 4.04977852-65.5276667 0-33.50910498-0.43591377-40.80714346-4.04977852-65.52766583C933.47226318 277.56633623 813.21634004 135.59910049 650.11432167 82.99416464 621.34401992 73.67123691 590.74569336 67.24502598 556.43506982 63.40617354c-8.43703857-0.88588916-66.58229619-1.85614893-73.89439628-1.1530626z m184.20867597 272.1507416c4.21851972 2.10925987 7.66364326 6.15903838 8.88701396 10.3775581 0.70308633 2.2780002 0.88588916 51.18470068 0.70308633 161.40054815l-0.25311094 158.15228818-27.8844126-42.74766211-27.98284482-42.74766211v-114.9687123c0-74.31624844 0.35154317-116.09365078 0.88588916-118.11854092 1.40617354-4.92160606 4.48569229-8.80264336 8.70421201-11.08064356 3.59980312-1.85614893 4.92160606-2.02488925 18.7302252-2.02488925 13.02116308 0 15.3132249 0.16874121 18.2099417 1.75771582z" fill="#000000" p-id="1608"></path></svg>