<?xml version="1.0" standalone="no"?><!DOCTYPE svg PUBLIC "-//W3C//DTD SVG 1.1//EN" "http://www.w3.org/Graphics/SVG/1.1/DTD/svg11.dtd"><svg t="1688129852875" class="icon" viewBox="0 0 1024 1024" version="1.1" xmlns="http://www.w3.org/2000/svg" p-id="1393" xmlns:xlink="http://www.w3.org/1999/xlink" width="200" height="200"><path d="M376.15433466 121.992925L223.16254366 153.459807l0.006335-31.533823z" fill="#52CE63" p-id="1394"></path><path d="M394.86435666 122.052287L223.09581966 157.317146l0.066724-3.857339 152.991791-31.466882z" fill="#52CE63" p-id="1395"></path><path d="M413.59898866 121.911223L223.02909666 161.174485l0.066723-3.857339 171.768537-35.264859z" fill="#52CD63" p-id="1396"></path><path d="M432.10858366 121.945976L223.16279966 165.056433l-0.133703-3.881948L413.59898866 121.911223z" fill="#52CC62" p-id="1397"></path><path d="M450.81860666 122.005338L223.09607666 168.913773l0.066723-3.85734 208.945784-43.110457z" fill="#52CB62" p-id="1398"></path><path d="M469.52862866 122.064701L223.02935266 172.771112l0.066724-3.857339 227.72253-46.908435z" fill="#52CA62" p-id="1399"></path><path d="M488.26326066 121.923636L223.16305666 176.65306l-0.133704-3.881948 246.499276-50.706411z" fill="#52C961" p-id="1400"></path><path d="M506.97328266 121.982998l-283.87695 58.527401 0.066724-3.857339 265.100204-54.729424z" fill="#52C861" p-id="1401"></path><path d="M525.68330566 122.042361l-302.653696 62.325377 0.066723-3.857339 283.87695-58.527401z" fill="#52C761" p-id="1402"></path><path d="M528.97107666 125.090886L223.16331366 188.249687l-0.133704-3.881949 302.653696-62.325377 3.456484 0.017505z" fill="#52C661" p-id="1403"></path><path d="M529.10478066 128.972834L223.09658966 192.107026l0.066724-3.857339 305.807763-63.158801z" fill="#52C560" p-id="1404"></path><path d="M529.03805666 132.830173L223.02986566 195.964365l0.066724-3.857339 306.008191-63.134192z" fill="#52C460" p-id="1405"></path><path d="M528.97133266 136.687512L222.98775166 199.621276l0.042114-3.656911 306.008191-63.134192z" fill="#52C360" p-id="1406"></path><path d="M529.10503666 140.569461L223.12145566 203.503225l-0.133704-3.881949 305.983581-62.933764z" fill="#52C25F" p-id="1407"></path><path d="M529.03831366 144.4268L223.05473166 207.360564l0.066724-3.857339 305.983581-62.933764z" fill="#52C15F" p-id="1408"></path><path d="M528.97158966 148.284139L222.98800866 211.217903l0.066723-3.857339 305.983582-62.933764z" fill="#52C05F" p-id="1409"></path><path d="M529.10529366 152.166087L223.12171166 215.099851l-0.133703-3.881948L528.97158966 148.284139z" fill="#52BF5E" p-id="1410"></path><path d="M529.06317966 155.822999L223.05498866 218.95719l0.066723-3.857339 305.983582-62.933764z" fill="#52BE5E" p-id="1411"></path><path d="M528.99645566 159.680338L222.98826466 222.814529l0.066724-3.857339 306.008191-63.134191z" fill="#52BD5E" p-id="1412"></path><path d="M529.13015966 163.562286L223.12196866 226.696478l-0.133704-3.881949 306.008191-63.134191z" fill="#52BC5E" p-id="1413"></path><path d="M529.06343566 167.419625L223.05524466 230.553817 223.12196866 226.696478l306.008191-63.134192z" fill="#52BB5D" p-id="1414"></path><path d="M528.99671166 171.276965L222.98852166 234.411156l0.066723-3.857339 306.008191-63.134192z" fill="#52BA5D" p-id="1415"></path><path d="M529.13041566 175.158913L223.12222566 238.293104l-0.133704-3.881948L528.99671166 171.276965z" fill="#52B95D" p-id="1416"></path><path d="M529.06369266 179.016252L223.05550166 242.150443l0.066724-3.857339 306.00819-63.134191z" fill="#51B75C" p-id="1417"></path><path d="M528.99696866 182.873591L222.98877766 246.007783l0.066724-3.85734 306.008191-63.134191z" fill="#51B65C" p-id="1418"></path><path d="M529.13067266 186.75554L223.14709066 249.689304l-0.158313-3.681521L528.99696866 182.873591z" fill="#51B55C" p-id="1419"></path><path d="M529.06394866 190.612879L223.08036766 253.546643l0.066723-3.857339L529.13067266 186.75554z" fill="#51B45B" p-id="1420"></path><path d="M528.99722566 194.470218L223.01364366 257.403982l0.066724-3.857339 305.983581-62.933764z" fill="#51B35B" p-id="1421"></path><path d="M529.13092866 198.352166L223.14734766 261.28593l-0.133704-3.881948 305.983582-62.933764z" fill="#51B25B" p-id="1422"></path><path d="M529.06420566 202.209505L223.08062366 265.143269l0.066724-3.857339 305.983581-62.933764z" fill="#51B15B" p-id="1423"></path><path d="M529.02209066 205.866417L223.01390066 269.000608l0.066723-3.857339 305.983582-62.933764z" fill="#51B05A" p-id="1424"></path><path d="M529.15579466 209.748365L223.14760466 272.882557l-0.133704-3.881949 306.00819-63.134191z" fill="#51AF5A" p-id="1425"></path><path d="M529.08907166 213.605704L223.08088066 276.739896l0.066724-3.857339 306.00819-63.134192z" fill="#51AE5A" p-id="1426"></path><path d="M529.02234766 217.463043L223.01415666 280.597235l0.066724-3.857339 306.008191-63.134192z" fill="#51AD59" p-id="1427"></path><path d="M529.15605166 221.344992L223.14786066 284.479183l-0.133704-3.881948L529.02234766 217.463043z" fill="#51AC59" p-id="1428"></path><path d="M529.08932766 225.202331L223.08113766 288.336522l0.066723-3.857339 306.008191-63.134191z" fill="#51AB59" p-id="1429"></path><path d="M529.02260466 229.05967L223.01441366 292.193861l0.066724-3.857339 306.00819-63.134191z" fill="#51AA58" p-id="1430"></path><path d="M528.95588066 232.917009L223.17272666 295.875382l-0.158313-3.681521 306.008191-63.134191z" fill="#51A958" p-id="1431"></path><path d="M529.08958466 236.798957L223.10600266 299.732721l0.066724-3.857339 305.783154-62.958373z" fill="#51A858" p-id="1432"></path><path d="M529.02286066 240.656296L223.03927966 303.590061l0.066723-3.85734L529.08958466 236.798957z" fill="#51A758" p-id="1433"></path><path d="M528.95613766 244.513636L223.17298366 307.472009l-0.133704-3.881948 305.983581-62.933765z" fill="#51A657" p-id="1434"></path><path d="M529.08984066 248.395584L223.10625966 311.329348l0.066724-3.857339 305.783154-62.958373z" fill="#51A557" p-id="1435"></path><path d="M529.02311766 252.252923L223.03953566 315.186687l0.066724-3.857339 305.983581-62.933764z" fill="#51A457" p-id="1436"></path><path d="M528.98100266 255.909835L223.17323966 319.068636l-0.133704-3.881949 305.983582-62.933764z" fill="#51A356" p-id="1437"></path><path d="M529.11470666 259.791783L223.10651666 322.925975l0.066723-3.857339 305.807763-63.158801z" fill="#51A256" p-id="1438"></path><path d="M223.10651666 322.925975l306.00819-63.134192-0.085175 282.376804L223.03401066 542.235133z" fill="#51A256" p-id="1439"></path><path d="M825.47828666 218.870021l-6.329961-31.294576 6.311687-0.038819zM825.61935166 237.604653l-10.328365-50.095932 3.857339 0.066724 6.329961 31.294576z" fill="#52CE63" p-id="1440"></path><path d="M825.55998966 256.314676l-14.150951-68.672251 3.881948-0.133704 10.328365 50.095932z" fill="#52CD63" p-id="1441"></path><path d="M825.50062666 275.024698l-17.948927-87.448997 3.857339 0.066724 14.150951 68.672251z" fill="#52CC62" p-id="1442"></path><path d="M825.44126466 293.734721L803.69436066 187.508978l3.857339 0.066723 17.948927 87.448997z" fill="#52CB62" p-id="1443"></path><path d="M825.58232966 312.469353L799.81241166 187.642681l3.881949-0.133703 21.746904 106.225743z" fill="#52CA62" p-id="1444"></path><path d="M825.54757566 330.978948l-29.592503-143.40299 3.857339 0.066723 25.769918 124.826672z" fill="#52C961" p-id="1445"></path><path d="M825.48821366 349.68897l-33.39048-162.179736 3.857339 0.066724 29.592503 143.40299z" fill="#52C861" p-id="1446"></path><path d="M825.62927866 368.423602l-37.413493-180.780664 3.881948-0.133704 33.39048 162.179736z" fill="#52C761" p-id="1447"></path><path d="M825.56991566 387.133625l-41.011042-199.532801 3.656912 0.042114 37.413493 180.780664z" fill="#52C661" p-id="1448"></path><path d="M825.51055366 405.843647L780.70153466 187.5341l3.857339 0.066724 41.011042 199.532801z" fill="#52C560" p-id="1449"></path><path d="M825.65161866 424.578279L776.81958666 187.667804l3.881948-0.133704 44.809019 218.309547z" fill="#52C460" p-id="1450"></path><path d="M825.59225566 443.288302L772.96224766 187.60108l3.857339 0.066724 48.832032 236.910475z" fill="#52C360" p-id="1451"></path><path d="M825.53289366 461.998324L769.10490766 187.534357l3.85734 0.066723 52.630008 255.687222z" fill="#52C25F" p-id="1452"></path><path d="M825.47353066 480.708347L765.24756866 187.467633l3.857339 0.066724 56.427986 274.463967z" fill="#52C15F" p-id="1453"></path><path d="M825.61459566 499.442979L761.36562066 187.601337l3.881948-0.133704 60.225962 293.240714z" fill="#52C05F" p-id="1454"></path><path d="M825.55523366 518.153001L757.50828166 187.534613l3.857339 0.066724 64.248975 311.841642z" fill="#52BF5E" p-id="1455"></path><path d="M825.49587066 536.863024L753.65094266 187.46789l3.857339 0.066723 68.046952 330.618388z" fill="#52BE5E" p-id="1456"></path><path d="M825.63693566 555.597656L749.76899366 187.601593l3.881949-0.133703 71.844928 349.395134z" fill="#52BD5E" p-id="1457"></path><path d="M823.50276666 564.694268L745.91165466 187.53487l3.857339 0.066723L825.63693566 555.597656l-0.105286 9.142279z" fill="#52BC5E" p-id="1458"></path><path d="M819.64542766 564.627545L742.05431566 187.468146l3.857339 0.066724 77.591112 377.159398z" fill="#52BB5D" p-id="1459"></path><path d="M815.96390666 564.785858l-77.791539-377.184008 3.881948-0.133704 77.591112 377.159399z" fill="#52BA5D" p-id="1460"></path><path d="M812.10656766 564.719134L734.51545566 187.559736l3.656912 0.042114 77.791539 377.184008z" fill="#52B95D" p-id="1461"></path><path d="M808.24922866 564.652411L730.65811666 187.493012l3.857339 0.066724 77.591112 377.159398z" fill="#51B75C" p-id="1462"></path><path d="M804.36727966 564.786114L726.77616866 187.626716l3.881948-0.133704L808.24922866 564.652411z" fill="#51B65C" p-id="1463"></path><path d="M800.50994066 564.719391L722.91882966 187.559992l3.857339 0.066724 77.591111 377.159398z" fill="#51B55C" p-id="1464"></path><path d="M796.65260166 564.652667L719.06149066 187.493269l3.857339 0.066723 77.591111 377.159399z" fill="#51B45B" p-id="1465"></path><path d="M792.77065366 564.786371L715.17954166 187.626972l3.881949-0.133703 77.591111 377.159398z" fill="#51B35B" p-id="1466"></path><path d="M788.91331466 564.719647L711.32220266 187.560249l3.857339 0.066723 77.591112 377.159399z" fill="#51B25B" p-id="1467"></path><path d="M785.05597566 564.652924L707.46486366 187.493525l3.857339 0.066724L788.91331466 564.719647z" fill="#51B15B" p-id="1468"></path><path d="M781.19863666 564.5862L703.58291566 187.627229l3.881948-0.133704 77.591112 377.159399z" fill="#51B05A" p-id="1469"></path><path d="M777.31668766 564.719904L699.72557666 187.560505l3.857339 0.066724 77.615721 376.958971z" fill="#51AF5A" p-id="1470"></path><path d="M773.45934866 564.65318L695.86823766 187.493782l3.857339 0.066723 77.591111 377.159399z" fill="#51AE5A" p-id="1471"></path><path d="M769.60200966 564.586457L691.98628866 187.627485l3.881949-0.133703 77.591111 377.159398z" fill="#51AD59" p-id="1472"></path><path d="M765.92048866 564.74477l-77.791539-377.184008 3.857339 0.066723L769.60200966 564.586457z" fill="#51AC59" p-id="1473"></path><path d="M762.06314966 564.678046L684.47203766 187.518648l3.656912 0.042114 77.791539 377.184008z" fill="#51AB59" p-id="1474"></path><path d="M758.20581066 564.611323L680.59008966 187.652351l3.881948-0.133703 77.591112 377.159398z" fill="#51AA58" p-id="1475"></path><path d="M754.32386266 564.745026L676.73275066 187.585628l3.857339 0.066723 77.615721 376.958972z" fill="#51A958" p-id="1476"></path><path d="M750.46652366 564.678303L672.87541166 187.518904l3.857339 0.066724 77.591112 377.159398z" fill="#51A858" p-id="1477"></path><path d="M746.60918366 564.611579L668.99346266 187.652608l3.881949-0.133704 77.591112 377.159399z" fill="#51A758" p-id="1478"></path><path d="M742.72723566 564.745283L665.13612366 187.585884l3.857339 0.066724 77.615721 376.958971z" fill="#51A657" p-id="1479"></path><path d="M738.86989666 564.678559L661.27878466 187.519161l3.857339 0.066723 77.591112 377.159399z" fill="#51A557" p-id="1480"></path><path d="M735.01255766 564.611836L657.39683666 187.652865l3.881948-0.133704L738.86989666 564.678559z" fill="#51A457" p-id="1481"></path><path d="M731.13060866 564.745539L653.53949766 187.586141l3.857339 0.066724L735.01255766 564.611836z" fill="#51A356" p-id="1482"></path><path d="M727.27326966 564.678816L649.68215866 187.519417l3.857339 0.066724 77.591111 377.159398z" fill="#51A256" p-id="1483"></path><path d="M649.68215866 187.519417l77.591111 377.159399-255.326211-0.018965L472.07584866 187.481151z" fill="#51A256" p-id="1484"></path><path d="M634.67467466 24.748543l-114.844891-14.10118 114.964129-0.125612zM634.73454966 29.231773l-151.923956-18.653916L519.82978366 10.647363l114.844891 14.10118z" fill="#8AE99C" p-id="1485"></path><path d="M634.79442566 33.715004l-188.802595-23.182044 36.818763 0.044897 151.923956 18.653916z" fill="#89E99B" p-id="1486"></path><path d="M634.82969166 38.398662L408.94803166 10.663881l37.043799-0.130921 188.802595 23.182044z" fill="#88E89A" p-id="1487"></path><path d="M634.68914066 42.857283L398.98653766 13.916642l-0.007104-3.256057 9.968598 0.003296L634.82969166 38.398662z" fill="#87E899" p-id="1488"></path><path d="M634.74901566 47.340514L399.04641366 18.399873l-0.059876-4.483231 235.702603 28.940641z" fill="#86E798" p-id="1489"></path><path d="M634.80889166 51.823744L398.90586166 22.858494l0.140552-4.458621 235.702602 28.940641z" fill="#85E797" p-id="1490"></path><path d="M634.84415766 56.507402L398.94112766 27.542152l-0.035266-4.683658 235.90303 28.96525z" fill="#84E696" p-id="1491"></path><path d="M634.70360566 60.966023L399.00100366 32.025383l-0.059876-4.483231 235.90303 28.96525z" fill="#83E695" p-id="1492"></path><path d="M634.76348166 65.449254L399.06087866 36.508613l-0.059875-4.48323 235.702602 28.94064z" fill="#82E594" p-id="1493"></path><path d="M634.79874766 70.132912L398.89571766 41.167662l0.165161-4.659049 235.702603 28.940641z" fill="#81E593" p-id="1494"></path><path d="M634.85862366 74.616142L398.95559366 45.650893l-0.059876-4.483231 235.90303 28.96525z" fill="#80E492" p-id="1495"></path><path d="M634.71807166 79.074764L399.01546866 50.134123l-0.059875-4.48323 235.90303 28.965249z" fill="#7FE491" p-id="1496"></path><path d="M634.77794666 83.557994L399.07534466 54.617354l-0.059876-4.483231 235.702603 28.940641z" fill="#7EE390" p-id="1497"></path><path d="M634.81321366 88.241652L398.91018366 59.276402l0.165161-4.659048 235.702602 28.94064z" fill="#7DE38F" p-id="1498"></path><path d="M634.87308866 92.724883L398.97005966 63.759633l-0.059876-4.483231L634.81321366 88.241652z" fill="#7CE28E" p-id="1499"></path><path d="M634.73253766 97.183504L399.02993466 68.242863l-0.059875-4.48323 235.903029 28.96525z" fill="#7BE28D" p-id="1500"></path><path d="M634.76780366 101.867162L398.86477366 72.901912l0.165161-4.659049 235.702603 28.940641z" fill="#7AE18C" p-id="1501"></path><path d="M634.82767866 106.350393L398.92464966 77.385143l-0.059876-4.483231 235.90303 28.96525z" fill="#79E18B" p-id="1502"></path><path d="M634.68712766 110.809014L398.98452466 81.868373l-0.059875-4.48323 235.903029 28.96525z" fill="#78E08A" p-id="1503"></path><path d="M634.74700266 115.292244L399.04440066 86.351604l-0.059876-4.483231 235.702603 28.940641z" fill="#77E089" p-id="1504"></path><path d="M634.78226866 119.975902L398.87923966 91.010652l0.165161-4.659048 235.702602 28.94064z" fill="#76DF88" p-id="1505"></path><path d="M634.84214466 124.459133L398.93911466 95.493883l-0.059875-4.483231 235.903029 28.96525z" fill="#75DF87" p-id="1506"></path><path d="M634.70159266 128.917754L398.99899066 99.977114l-0.059876-4.483231 235.90303 28.96525z" fill="#74DE86" p-id="1507"></path><path d="M634.73685866 133.601412L399.03425666 104.660772l-0.035266-4.683658 235.702602 28.94064z" fill="#73DE85" p-id="1508"></path><path d="M634.79673466 138.084643L398.89370466 109.119393l0.140552-4.458621 235.702602 28.94064z" fill="#72DD84" p-id="1509"></path><path d="M634.85661066 142.567873L398.95358066 113.602623l-0.059876-4.48323L634.79673466 138.084643z" fill="#71DD83" p-id="1510"></path><path d="M634.71605866 147.026494L399.01345566 118.085854l-0.059875-4.483231 235.90303 28.96525z" fill="#70DC82" p-id="1511"></path><path d="M634.75132466 151.710152L399.04872266 122.769512l-0.035267-4.683658 235.702603 28.94064z" fill="#6FDC81" p-id="1512"></path><path d="M634.81120066 156.193383L398.90817066 127.228133l0.140552-4.458621 235.702602 28.94064z" fill="#6EDC80" p-id="1513"></path><path d="M634.87107566 160.676614L398.96804666 131.711364l-0.059876-4.483231 235.90303 28.96525z" fill="#6DDB7E" p-id="1514"></path><path d="M634.70591466 165.335662L399.00331266 136.395022l-0.035266-4.683658 235.903029 28.96525z" fill="#6CDB7D" p-id="1515"></path><path d="M634.76579066 169.818893L399.06318766 140.878252 399.00331266 136.395022l235.702602 28.94064z" fill="#6BDA7C" p-id="1516"></path><path d="M634.82566566 174.302123L398.92263666 145.336873l0.140551-4.458621 235.702603 28.940641z" fill="#6ADA7B" p-id="1517"></path><path d="M634.66050466 178.961172L398.95790266 150.020531l-0.035266-4.683658 235.903029 28.96525z" fill="#69D97A" p-id="1518"></path><path d="M634.72038066 183.444403L399.01777766 154.503762l-0.059875-4.483231 235.702602 28.940641z" fill="#68D979" p-id="1519"></path><path d="M634.78025566 187.927633L398.87722666 158.962383l0.140551-4.458621 235.702603 28.940641z" fill="#67D878" p-id="1520"></path><path d="M634.84013166 192.410864L398.93710166 163.445614l-0.059875-4.483231L634.78025566 187.927633z" fill="#66D877" p-id="1521"></path><path d="M634.67497066 197.069912L398.97236766 168.129272l-0.035266-4.683658 235.90303 28.96525z" fill="#65D776" p-id="1522"></path><path d="M634.73484666 201.553143L399.03224366 172.612502l-0.059876-4.48323 235.702603 28.94064z" fill="#64D775" p-id="1523"></path><path d="M634.79472166 206.036374L398.89169166 177.071124l0.140552-4.458622 235.702603 28.940641z" fill="#63D674" p-id="1524"></path><path d="M634.82998766 210.720032L398.92695866 181.754782l-0.035267-4.683658 235.90303 28.96525z" fill="#62D673" p-id="1525"></path><path d="M634.68943666 215.178653L398.98683366 186.238012l-0.059875-4.48323 235.903029 28.96525z" fill="#61D572" p-id="1526"></path><path d="M634.74931166 219.661883L399.04670966 190.721243l-0.059876-4.483231 235.702603 28.940641z" fill="#60D571" p-id="1527"></path><path d="M634.80918766 224.145114L398.90615766 195.179864l0.140552-4.458621 235.702602 28.94064z" fill="#5FD470" p-id="1528"></path><path d="M634.84445366 228.828772L398.94142366 199.863522l-0.035266-4.683658 235.90303 28.96525z" fill="#5ED46F" p-id="1529"></path><path d="M634.70390166 233.287393L399.00129966 204.346753l-0.059876-4.483231 235.90303 28.96525z" fill="#5DD36E" p-id="1530"></path><path d="M634.76377766 237.770624L399.06117466 208.829983l-0.059875-4.48323 235.702602 28.94064z" fill="#5CD36D" p-id="1531"></path><path d="M634.79904366 242.454282L398.89601366 213.489032l0.165161-4.659049L634.76377766 237.770624z" fill="#5BD26C" p-id="1532"></path><path d="M634.85891966 246.937512L398.95588966 217.972262l-0.059876-4.48323 235.90303 28.96525z" fill="#5AD26B" p-id="1533"></path><path d="M634.71836766 251.396133L399.01576466 222.455493l-0.059875-4.483231 235.90303 28.96525z" fill="#59D16A" p-id="1534"></path><path d="M634.77824266 255.879364L399.07564066 226.938723l-0.059876-4.48323 235.702603 28.94064z" fill="#58D169" p-id="1535"></path><path d="M634.81350966 260.563022L398.91047966 231.597772l0.165161-4.659049 235.702602 28.940641z" fill="#57D068" p-id="1536"></path><path d="M634.67295766 265.021643L398.97035566 236.081003l-0.059876-4.483231 235.90303 28.96525z" fill="#56D067" p-id="1537"></path><path d="M634.73283366 269.504874L399.03023066 240.564233l-0.059875-4.48323 235.702602 28.94064z" fill="#55CF66" p-id="1538"></path><path d="M634.76809966 274.188532L398.86506966 245.223282l0.165161-4.659049 235.702603 28.940641z" fill="#54CF65" p-id="1539"></path><path d="M634.82797466 278.671762L398.92494566 249.706512l-0.059876-4.48323 235.90303 28.96525z" fill="#53CE64" p-id="1540"></path><path d="M634.68742366 283.130384L398.98482066 254.189743l-0.059875-4.483231 235.903029 28.96525zM398.98482066 254.189743l235.702603 28.940641 0.053067 173.548543-235.78987-0.061593z" fill="#52CE63" p-id="1541"></path><path d="M777.67863366 447.482548L169.86163566 392.153027V303.100769h607.816998z" fill="#FFE56C" p-id="1542"></path><path d="M777.67863366 458.588838L169.86163566 403.259318v-11.106291l607.816998 55.329521z" fill="#FFE56C" p-id="1543"></path><path d="M777.67863366 469.897062L169.86163566 414.567541v-11.308223L777.67863366 458.588838z" fill="#FFE46B" p-id="1544"></path><path d="M777.67863366 481.003352L169.86163566 425.673832v-11.106291l607.816998 55.329521z" fill="#FFE46A" p-id="1545"></path><path d="M777.67863366 492.109643L169.86163566 436.780122v-11.10629l607.816998 55.32952z" fill="#FFE369" p-id="1546"></path><path d="M777.67863366 503.417866L169.86163566 448.088345v-11.308223l607.816998 55.329521z" fill="#FFE268" p-id="1547"></path><path d="M777.67863366 514.524157L169.86163566 459.194636v-11.106291l607.816998 55.329521z" fill="#FFE267" p-id="1548"></path><path d="M777.67863366 525.630448L169.86163566 470.300927v-11.106291l607.816998 55.329521z" fill="#FFE166" p-id="1549"></path><path d="M777.67863366 536.938671L169.86163566 481.60915v-11.308223l607.816998 55.329521z" fill="#FFE165" p-id="1550"></path><path d="M777.67863366 548.044962L169.86163566 492.715441v-11.106291l607.816998 55.329521z" fill="#FFE064" p-id="1551"></path><path d="M777.67863366 559.151252L169.86163566 503.821731v-11.10629l607.816998 55.329521z" fill="#FFDF63" p-id="1552"></path><path d="M777.67863366 570.459475L169.86163566 515.129955v-11.308224l607.816998 55.329521z" fill="#FFDF62" p-id="1553"></path><path d="M777.67863366 581.565766L169.86163566 526.236245V515.129955l607.816998 55.32952z" fill="#FFDE61" p-id="1554"></path><path d="M777.67863366 592.672057L169.86163566 537.342536v-11.106291l607.816998 55.329521z" fill="#FFDD60" p-id="1555"></path><path d="M777.67863366 603.98028L169.86163566 548.650759V537.342536l607.816998 55.329521z" fill="#FFDD5F" p-id="1556"></path><path d="M777.67863366 615.086571L169.86163566 559.75705v-11.106291L777.67863366 603.98028z" fill="#FFDC5E" p-id="1557"></path><path d="M777.67863366 626.192861L169.86163566 570.863341v-11.106291l607.816998 55.329521z" fill="#FFDC5D" p-id="1558"></path><path d="M777.67863366 637.501085L169.86163566 582.171564v-11.308223L777.67863366 626.192861z" fill="#FFDB5C" p-id="1559"></path><path d="M777.67863366 648.607375L169.86163566 593.277854v-11.10629l607.816998 55.329521z" fill="#FFDA5B" p-id="1560"></path><path d="M777.67863366 659.713666L169.86163566 604.384145v-11.106291l607.816998 55.329521z" fill="#FFDA5A" p-id="1561"></path><path d="M777.67863366 671.021889L169.86163566 615.692368v-11.308223l607.816998 55.329521z" fill="#FFD959" p-id="1562"></path><path d="M777.67863366 682.12818L169.86163566 626.798659v-11.106291l607.816998 55.329521z" fill="#FFD858" p-id="1563"></path><path d="M777.67863366 693.234471L169.86163566 637.90495v-11.106291l607.816998 55.329521z" fill="#FFD857" p-id="1564"></path><path d="M777.67863366 704.542694L169.86163566 649.213173v-11.308223l607.816998 55.329521z" fill="#FFD756" p-id="1565"></path><path d="M777.67863366 715.648984L169.86163566 660.319464v-11.106291l607.816998 55.329521z" fill="#FFD655" p-id="1566"></path><path d="M777.67863366 726.755275L169.86163566 671.425754v-11.10629l607.816998 55.32952z" fill="#FFD654" p-id="1567"></path><path d="M777.67863366 738.063498L169.86163566 682.733978v-11.308224l607.816998 55.329521z" fill="#FFD552" p-id="1568"></path><path d="M777.67863366 749.169789L169.86163566 693.840268V682.733978l607.816998 55.32952z" fill="#FFD551" p-id="1569"></path><path d="M777.67863366 760.478012L169.86163566 704.946559v-11.106291l607.816998 55.329521z" fill="#FFD450" p-id="1570"></path><path d="M777.67863366 771.584303L169.86163566 716.254782V704.946559l607.816998 55.531453z" fill="#FFD34F" p-id="1571"></path><path d="M777.67863366 782.690594L169.86163566 727.361073v-11.106291L777.67863366 771.584303z" fill="#FFD34E" p-id="1572"></path><path d="M777.67863366 793.998817L169.86163566 738.467363v-11.10629l607.816998 55.329521z" fill="#FFD24D" p-id="1573"></path><path d="M777.67863366 805.105107L169.86163566 749.775587v-11.308224l607.816998 55.531454z" fill="#FFD14C" p-id="1574"></path><path d="M777.67863366 816.211398L169.86163566 760.881877v-11.10629l607.816998 55.32952z" fill="#FFD14B" p-id="1575"></path><path d="M777.67863366 827.519621L169.86163566 771.988168v-11.106291l607.816998 55.329521z" fill="#FFD04A" p-id="1576"></path><path d="M777.67863366 838.625912L169.86163566 783.296391v-11.308223l607.816998 55.531453z" fill="#FFCF49" p-id="1577"></path><path d="M777.67863366 849.732203L169.86163566 794.402682v-11.106291l607.816998 55.329521z" fill="#FFCF48" p-id="1578"></path><path d="M777.67863366 861.040426L169.86163566 805.508973v-11.106291l607.816998 55.329521z" fill="#FFCE47" p-id="1579"></path><path d="M777.67863366 872.146717L169.86163566 816.817196v-11.308223l607.816998 55.531453z" fill="#FFCE46" p-id="1580"></path><path d="M777.67863366 883.253007L169.86163566 827.923486v-11.10629l607.816998 55.329521z" fill="#FFCD45" p-id="1581"></path><path d="M777.67863366 894.561231L169.86163566 839.029777v-11.106291l607.816998 55.329521z" fill="#FFCC44" p-id="1582"></path><path d="M777.67863366 905.667521L169.86163566 850.338v-11.308223l607.816998 55.531454z" fill="#FFCC43" p-id="1583"></path><path d="M777.67863366 916.773812L169.86163566 861.444291V850.338l607.816998 55.329521z" fill="#FFCB42" p-id="1584"></path><path d="M777.67863366 928.082035L169.86163566 872.550582v-11.106291l607.816998 55.329521z" fill="#FFCA41" p-id="1585"></path><path d="M777.67863366 939.188326L169.86163566 883.858805V872.550582l607.816998 55.531453z" fill="#FFCA40" p-id="1586"></path><path d="M777.67863366 950.294616L169.86163566 894.965096v-11.106291L777.67863366 939.188326z" fill="#FFC93F" p-id="1587"></path><path d="M777.67863366 961.60284L169.86163566 906.071386v-11.10629l607.816998 55.32952z" fill="#FFC93E" p-id="1588"></path><path d="M777.67863366 972.70913L169.86163566 917.37961v-11.308224l607.816998 55.531454z" fill="#FFC83D" p-id="1589"></path><path d="M686.20318566 975.536186L169.86163566 928.4859v-11.10629l607.816998 55.32952v2.827056z" fill="#FFC73C" p-id="1590"></path><path d="M563.63012266 975.536186L169.86163566 939.592191v-11.106291L686.20318566 975.536186z" fill="#FFC73B" p-id="1591"></path><path d="M440.85512766 975.536186L169.86163566 950.900414v-11.308223L563.63012266 975.536186z" fill="#FFC63A" p-id="1592"></path><path d="M169.86163566 950.900414L440.85512766 975.536186H169.86163566z" fill="#FFC63A" p-id="1593"></path><path d="M583.82337866 640.32814a43.4155 20.193256 0 1 0 86.831 0 43.4155 20.193256 0 1 0-86.831 0Z" fill="#EAADCC" p-id="1594"></path><path d="M305.70459866 648.311162a43.4155 20.193256 7.002 1 0 4.923277-40.085304 43.4155 20.193256 7.002 1 0-4.923277 40.085304Z" fill="#EAADCC" p-id="1595"></path><path d="M464.02890766 652.641988c-2.827056 0.098947-5.666228-0.205971-8.505399-0.512909-18.866559-2.168756-33.08665-10.157208-42.460359-23.975452-1.914321-2.762437-1.039953-6.631465 1.728543-8.343854s6.631465-1.039953 8.345872 1.728543c7.249379 10.859933 18.371824 16.938103 33.787356 18.62222 15.623522 1.877973 28.823853-2.019326 40.81057-11.732281 2.552428-2.108176 6.40732-1.635654 8.517515 0.916774s1.637673 6.409339-0.914754 8.517515c-12.180572 9.922966-25.952372 14.848101-41.309344 14.779444z" p-id="1596"></path><path d="M333.39469766 528.089986a43.358959 43.358959 0 0 1 31.117807 11.643431 43.358959 43.358959 0 0 1 13.785936 30.229304 43.358959 43.358959 0 0 1-11.643431 31.119827 43.358959 43.358959 0 0 1-30.229304 13.785936 43.358959 43.358959 0 0 1-31.119827-11.643432 43.358959 43.358959 0 0 1-13.785935-30.229304 43.358959 43.358959 0 0 1 11.643431-31.121845 43.358959 43.358959 0 0 1 30.229304-13.783917z" p-id="1597"></path><path d="M335.67249666 564.381305a14.048448 14.048448 0 0 0-14.619917-13.634486c-7.871331 0.274628-13.909115 6.748586-13.634486 14.619917s6.748586 13.909115 14.619917 13.632467a14.048448 14.048448 0 0 0 13.634486-14.619917z" fill="#FFFFFF" p-id="1598"></path><path d="M596.45022166 539.109446a43.358959 43.358959 0 0 1 31.119826 11.641412 43.358959 43.358959 0 0 1 13.785936 30.231323 43.358959 43.358959 0 0 1-11.643431 31.119826 43.358959 43.358959 0 0 1-30.229304 13.785936 43.358959 43.358959 0 0 1-31.119827-11.643431 43.358959 43.358959 0 0 1-13.785936-30.231323 43.358959 43.358959 0 0 1 11.643432-31.117807 43.358959 43.358959 0 0 1 30.229304-13.785936z" p-id="1599"></path><path d="M372.24450266 570.17677c0.71888 20.582986-15.447841 37.916876-36.030826 38.635756-20.585005 0.71888-37.920915-15.445821-38.639795-36.030826-0.71888-20.582986 15.447841-37.918896 36.030826-38.637776 20.585005-0.71888 37.920915 15.447841 38.639795 36.030827z m12.107876-0.424059c-0.951102-27.244741-23.924969-48.669785-51.16971-47.716663-27.244741 0.949083-48.667766 23.924969-47.716663 51.16971 0.951102 27.244741 23.924969 48.665746 51.16971 47.716664 27.244741-0.951102 48.667766-23.926989 47.716663-51.169711z" fill="#FFFFFF" p-id="1600"></path><path d="M334.92534666 624.01199c-13.333607 0.06058-26.035165-4.949367-35.853126-14.10297-10.233942-9.543333-16.140469-22.471055-16.633185-36.598257-0.486657-13.925269 4.497038-27.434557 14.040371-37.668499 9.543333-10.233942 22.471055-16.140469 36.598257-16.633185 28.856162-1.009663 53.294041 21.778426 54.301684 50.636608 0.484638 13.925269-4.497038 27.434557-14.040371 37.6685-9.543333 10.233942-22.471055 16.142489-36.598256 16.635204l-1.817393 0.062599z m-0.022213-99.007533l-1.61546 0.05856c-12.309809 0.430116-23.846216 5.682382-32.422292 14.6704-8.374143 8.979941-12.808582 20.853575-12.372407 33.365317 0.430116 12.311828 5.682382 23.848235 14.6704 32.424311 8.979941 8.374143 20.853575 12.808582 33.367336 12.372408 12.309809-0.430116 23.846216-5.682382 32.422291-14.670401 8.374143-8.98196 12.808582-20.855595 12.372408-33.367336-0.874368-25.023483-21.572455-44.909801-46.424295-44.85124z m0.00202 86.885521c-21.620919-0.052502-39.596955-17.204654-40.358241-39.001254-0.373575-10.696368 3.505549-21.136281 10.912435-28.872317 7.402848-7.93595 17.346007-12.525877 28.040355-12.899452 22.198446-0.775421 40.996348 16.752325 41.771769 38.952791 0.775421 22.198446-16.754344 40.996348-38.95279 41.771768l-1.413528 0.048464z m0.016154-74.761491l-1.211595 0.042406c-9.080907 0.317034-17.630732 4.2527-23.86439 10.936668-6.231639 6.683968-9.561507 15.488227-9.244472 24.569134 0.662339 18.969544 16.536257 33.771201 35.505801 33.108862 18.971564-0.662339 33.77322-16.534238 33.110882-35.505802-0.648204-18.565679-15.910266-33.187616-34.296226-33.151268zM635.30204566 581.19421c0.716861 20.585005-15.447841 37.918896-36.032846 38.637776-20.582986 0.71888-37.918896-15.445821-38.637775-36.030826-0.71888-20.582986 15.447841-37.918896 36.030826-38.637776 20.585005-0.71888 37.920915 15.447841 38.639795 36.030826z m12.107876-0.424058c-0.951102-27.242721-23.924969-48.665746-51.16971-47.716664-27.244741 0.953122-48.667766 23.926989-47.716664 51.169711 0.949083 27.24676 23.924969 48.669785 51.169711 47.716663 27.244741-0.949083 48.667766-23.924969 47.716663-51.16971z" fill="#FFFFFF" p-id="1601"></path><path d="M597.98288966 635.031449c-13.333607 0.06058-26.037184-4.949367-35.853126-14.102969-10.233942-9.543333-16.140469-22.471055-16.633185-36.598257-1.009663-28.858182 21.778426-53.294041 50.636609-54.301684 28.860201-1.009663 53.29606 21.778426 54.303703 50.636608 0.484638 13.925269-4.497038 27.434557-14.040371 37.668499s-22.471055 16.142489-36.598257 16.635204l-1.817393 0.062599z m-0.022213-99.007533l-1.61546 0.058561c-25.62928 0.894561-45.689261 22.406437-44.7947 48.035717 0.430116 12.311828 5.682382 23.848235 14.670401 32.42431 8.979941 8.374143 20.853575 12.808582 33.365316 12.372408 25.6313-0.896581 45.69128-22.408456 44.796719-48.037736-0.874368-25.023483-21.572455-44.909801-46.424295-44.85124z m0.002019 86.885522c-21.620919-0.052502-39.598975-17.204654-40.35824-39.001254-0.373575-10.696368 3.505549-21.136281 10.912435-28.872317 7.400828-7.93595 17.343987-12.525877 28.040355-12.899452 22.198446-0.775421 40.996348 16.752325 41.771769 38.95279 0.773402 22.198446-16.754344 40.996348-38.952791 41.771769l-1.413528 0.048464z m0.016155-74.761491l-1.211595 0.042406c-9.080907 0.317034-17.630732 4.2527-23.86439 10.936667-6.231639 6.683968-9.561507 15.488227-9.244472 24.569135 0.662339 18.969544 16.536257 33.771201 35.505801 33.108862 18.969544-0.662339 33.771201-16.534238 33.108862-35.505802-0.646184-18.565679-15.908247-33.187616-34.294206-33.151268z" fill="#FFFFFF" p-id="1602"></path><path d="M598.72802066 575.398746c-0.274628-7.869312-6.748586-13.907095-14.619917-13.632467s-13.907095 6.748586-13.632467 14.619917a14.048448 14.048448 0 0 0 14.619917 13.632467 14.048448 14.048448 0 0 0 13.632467-14.619917z" fill="#FFFFFF" p-id="1603"></path><path d="M392.99711166 892.743838c-2.827056 0-5.856044-1.211595-8.077303-3.432854l-149.430092-155.488069c-4.240584-4.442516-4.038651-11.510156 0.403865-15.75074 4.442516-4.240584 11.510156-4.038651 15.750739 0.403865l149.430093 155.48807c4.240584 4.442516 4.038651 11.510156-0.403865 15.750739-2.221258 2.019326-4.846381 3.028988-7.673437 3.028989z" fill="#ECB732" p-id="1604"></path><path d="M277.89555366 856.395977c-2.827056 0-5.452179-1.009663-7.673437-3.028988-4.442516-4.240584-4.644449-11.308223-0.403865-15.75074l94.908302-100.966279c4.240584-4.442516 11.308223-4.644449 15.750739-0.403865 4.442516 4.240584 4.644449 11.308223 0.403865 15.75074l-94.908302 100.966279c-2.221258 2.221258-5.048314 3.432853-8.077302 3.432853zM552.52383166 892.743838c-2.827056 0-5.452179-1.009663-7.673437-3.028989-4.442516-4.240584-4.644449-11.308223-0.403865-15.750739l149.430093-155.48807c4.240584-4.442516 11.308223-4.644449 15.750739-0.403865 4.442516 4.240584 4.644449 11.308223 0.403865 15.75074l-149.430092 155.488069c-2.221258 2.221258-5.250246 3.432853-8.077303 3.432854z" fill="#ECB732" p-id="1605"></path><path d="M667.62538966 856.395977c-3.028988 0-5.856044-1.211595-8.077302-3.432853l-94.908302-100.966279c-4.240584-4.442516-4.038651-11.510156 0.403865-15.75074 4.442516-4.240584 11.510156-4.038651 15.750739 0.403865l94.908303 100.966279c4.240584 4.442516 4.038651 11.510156-0.403866 15.75074-2.221258 2.019326-4.846381 3.028988-7.673437 3.028988z" fill="#ECB732" p-id="1606"></path><path d="M435.40294866 492.917373c-2.827056 0-5.654112-1.009663-7.87537-3.230921-4.240584-4.240584-4.240584-11.308223 0-15.750739l98.946953-98.946953c4.240584-4.240584 11.308223-4.240584 15.75074 0 4.240584 4.240584 4.240584 11.308223 0 15.750739l-98.946953 98.946953c-2.221258 2.221258-5.048314 3.230921-7.87537 3.230921z" fill="#FFC73B" p-id="1607"></path><path d="M514.15664566 492.917373c-2.827056 0-5.654112-1.009663-7.875369-3.230921l-98.946954-98.946953c-4.240584-4.240584-4.240584-11.308223 0-15.750739 4.240584-4.240584 11.308223-4.240584 15.75074 0l98.946953 98.946953c4.240584 4.240584 4.240584 11.308223 0 15.750739-2.221258 2.221258-5.048314 3.230921-7.87537 3.230921z" fill="#FFC73B" p-id="1608"></path></svg>