<?xml version="1.0" standalone="no"?><!DOCTYPE svg PUBLIC "-//W3C//DTD SVG 1.1//EN" "http://www.w3.org/Graphics/SVG/1.1/DTD/svg11.dtd"><svg t="1688129649811" class="icon" viewBox="0 0 1024 1024" version="1.1" xmlns="http://www.w3.org/2000/svg" p-id="1808" xmlns:xlink="http://www.w3.org/1999/xlink" width="200" height="200"><path d="M544 64A160.448 160.448 0 0 0 384 224a32 32 0 1 0 64 0C448 170.56 490.56 128 544 128s96 42.56 96 96S597.44 320 544 320h-448a32 32 0 1 0 0 64h448C632 384 704 312 704 224S632 64 544 64z m-448 384a32 32 0 1 0 0 64H768c71.04 0 128 56.96 128 128 0 71.04-56.96 128-128 128a127.872 127.872 0 0 1-125.44-102.4 32 32 0 1 0-62.72 12.8A192.256 192.256 0 0 0 768 832c105.664 0 192-86.336 192-192s-86.336-192-192-192H96z m0 128a32 32 0 1 0 0 64h256c53.44 0 96 42.56 96 96S405.44 832 352 832 256 789.44 256 736a32 32 0 1 0-64 0C192 824 264 896 352 896S512 824 512 736 440 576 352 576h-256z" p-id="1809" fill="#1296db"></path></svg>