<?xml version="1.0" standalone="no"?><!DOCTYPE svg PUBLIC "-//W3C//DTD SVG 1.1//EN" "http://www.w3.org/Graphics/SVG/1.1/DTD/svg11.dtd"><svg t="1688129876960" class="icon" viewBox="0 0 1024 1024" version="1.1" xmlns="http://www.w3.org/2000/svg" p-id="2024" xmlns:xlink="http://www.w3.org/1999/xlink" width="200" height="200"><path d="M542.091636 735.953455c0-107.659636 87.272727-194.923055 194.923055-194.923055s194.923055 87.268073 194.923054 194.923055c0 107.650327-87.272727 194.923055-194.923054 194.923054s-194.923055-87.272727-194.923055-194.923054z" fill="#78909C" p-id="2025"></path><path d="M542.091636 288.060509c0-107.654982 87.272727-194.927709 194.923055-194.927709s194.923055 87.272727 194.923054 194.927709v175.429818a19.493236 19.493236 0 0 1-19.493236 19.493237h-350.859636a19.493236 19.493236 0 0 1-19.493237-19.493237z" fill="#B0BEC5" p-id="2026"></path><path d="M481.899055 735.953455c0 107.650327-87.272727 194.923055-194.923055 194.923054s-194.923055-87.272727-194.923055-194.923054v-175.429819a19.493236 19.493236 0 0 1 19.493237-19.493236h350.859636a19.493236 19.493236 0 0 1 19.493237 19.493236z" fill="#546E7A" p-id="2027"></path></svg>