<?xml version="1.0" standalone="no"?><!DOCTYPE svg PUBLIC "-//W3C//DTD SVG 1.1//EN" "http://www.w3.org/Graphics/SVG/1.1/DTD/svg11.dtd"><svg t="1688129900987" class="icon" viewBox="0 0 1024 1024" version="1.1" xmlns="http://www.w3.org/2000/svg" p-id="2303" xmlns:xlink="http://www.w3.org/1999/xlink" width="200" height="200"><path d="M512 52.18000592c-253.95112619 0-459.81999408 205.86886789-459.81999408 459.81999408 0 253.95733997 205.86886789 459.81999408 459.81999408 459.81999408s459.81999408-205.86886789 459.81999408-459.81999408-205.86886789-459.81999408-459.81999408-459.81999408z m316.49285917 674.04018726c-0.70215756-0.78915053-1.69636295-1.45402539-2.03812106-2.35502402-22.0030081-58.98123491-51.82295609-67.01565725-98.24613414-26.45829101-95.82897228 83.75559054-229.82300406 98.41390629-341.16158047 37.3324125-117.05525741-64.2132408-178.77055715-206.73258382-140.3196636-324.04882015 41.76905406-127.45091755 184.31325221-193.01876319 306.05370255-140.76705603 125.17667271 53.7243739 177.28546285 199.6488704 113.99807582 319.32013076-3.85875968 7.30740963-8.68686962 14.17364063-11.99260254 21.71096025-11.39607931 26.15381561-1.49130809 54.27118687 22.80458619 66.04630699 24.06598429 11.66327201 54.40789011 1.19926026 66.02145185-22.75487593 12.00503011-24.73085915 2.63464429-52.04043852-22.87915159-65.70454888-5.35006777-2.87698186-11.34636905-4.5360621-19.33108111-7.65538153 41.1041792-27.17287614 82.56254407-12.30329173 89.82024344 30.82658096 2.18725186 13.01166307 4.52984832 18.32444814 17.92676599 22.93507565 41.46457866 14.2233509 49.56113883 55.84327414 19.34350867 91.57253044z" fill="#A9314D" p-id="2304"></path></svg>