<?xml version="1.0" standalone="no"?><!DOCTYPE svg PUBLIC "-//W3C//DTD SVG 1.1//EN" "http://www.w3.org/Graphics/SVG/1.1/DTD/svg11.dtd"><svg t="1688560818632" class="icon" viewBox="0 0 1024 1024" version="1.1" xmlns="http://www.w3.org/2000/svg" p-id="1883" xmlns:xlink="http://www.w3.org/1999/xlink" width="200" height="200"><path d="M512 431.7875a80.2125 80.2125 0 0 0 0 160.425 80.2125 80.2125 0 0 0 0-160.425z m-224.690625 239.765625l-17.690625-4.5C137.684375 633.725 62.028125 577.1375 62.028125 511.83125s75.684375-121.865625 207.590625-155.221875l17.690625-4.471875 4.978125 17.55a874.8 874.8 0 0 0 53.409375 139.415625l-2.30625-5.23125 3.796875 7.9875-3.796875 7.9875a825.975 825.975 0 0 0-49.528125 127.996875l-1.575 6.1875-4.978125 17.521875z m-25.93125-273.9375c-100.265625 28.153125-161.803125 71.240625-161.803125 114.215625 0 42.946875 61.5375 86.034375 161.803125 114.215625a917.184375 917.184375 0 0 1 46.74375-119.896875l-2.41875 5.68125a855.984375 855.984375 0 0 1-42.496875-107.6625l-1.828125-6.58125z m475.3125 273.9375l-4.978125-17.578125a865.74375 865.74375 0 0 0-53.4375-139.33125l2.278125 5.175-3.796875-7.9875 3.796875-7.9875a828.45 828.45 0 0 0 49.55625-127.96875l1.575-6.215625 4.978125-17.55 17.746875 4.471875c131.878125 33.328125 207.5625 89.915625 207.5625 155.25s-75.684375 121.865625-207.5625 155.221875l-17.746875 4.5z m-18.39375-159.69375a929.19375 929.19375 0 0 1 44.325 114.215625c100.321875-28.209375 161.803125-71.296875 161.803125-114.215625 0-42.975-61.5375-86.034375-161.803125-114.215625a911.925 911.925 0 0 1-46.74375 119.86875l2.41875-5.625zM261.125 397.446875l-4.978125-17.521875C219.05 249.2 230.3 155.515625 287 122.834375c55.603125-32.090625 144.9 5.821875 238.471875 101.840625l12.740625 13.078125-12.740625 13.078125a888.75 888.75 0 0 0-88.93125 108.365625l-1.9125 2.896875-5.0625 7.228125-8.803125 0.759375a890.634375 890.634375 0 0 0-148.05 24.1875l6.13125-1.321875-17.690625 4.471875z m71.1-248.625c-10.040625 0-18.928125 2.165625-26.4375 6.496875-37.265625 21.4875-43.875 96.1875-18.196875 196.9875a877.33125 877.33125 0 0 1 117.5625-18.50625l3.684375-0.28125a937.35 937.35 0 0 1 77.5125-96.01875l-0.5625 0.61875c-58.5-56.953125-113.878125-89.296875-153.5625-89.296875z m359.578125 763.565625c-0.028125 0-0.028125 0 0 0-53.4375 0-122.0625-40.246875-193.275-113.371875l-12.740625-13.078125 12.740625-13.078125a883.884375 883.884375 0 0 0 88.875-108.39375l1.9125-2.896875 5.0625-7.228125 8.775-0.759375a892.6875 892.6875 0 0 0 148.134375-24.13125l-6.13125 1.29375 17.690625-4.471875 5.034375 17.55c37.0125 130.640625 25.790625 224.353125-30.909375 257.034375a88.0875 88.0875 0 0 1-43.93125 11.559375h-1.321875 0.05625z m-153.590625-126.7875c58.5 56.953125 113.878125 89.296875 153.5625 89.296875h0.028125c10.0125 0 18.928125-2.165625 26.409375-6.496875 37.265625-21.4875 43.903125-96.215625 18.196875-197.015625a869.990625 869.990625 0 0 1-117.61875 18.50625l-3.65625 0.28125a934.284375 934.284375 0 0 1-77.484375 96.075l0.5625-0.61875z m224.6625-388.153125l-17.690625-4.471875c-40.865625-10.575-89.296875-18.675-138.909375-22.66875l-3.121875-0.196875-8.775-0.759375-5.0625-7.228125a887.90625 887.90625 0 0 0-91.040625-111.54375l0.253125 0.28125-12.740625-13.078125 12.740625-13.078125C592.04375 128.7125 681.3125 90.8 737 122.8625c56.7 32.709375 67.95 126.365625 30.909375 257.0625l-5.034375 17.55z m-147.740625-63.95625c42.834375 3.909375 83.503125 10.2375 121.275 18.7875 25.734375-100.8 19.096875-175.5-18.196875-196.9875-37.040625-21.403125-106.678125 11.390625-180 82.8a938.7 938.7 0 0 1 74.98125 92.503125l1.940625 2.896875zM332.225 912.3875h-1.29375a88.678125 88.678125 0 0 1-44.353125-11.784375l0.421875 0.225c-56.7-32.653125-67.95-126.3375-30.853125-257.034375l4.95-17.55 17.690625 4.471875c43.3125 10.9125 91.096875 18.590625 141.946875 22.8375l8.803125 0.759375 5.034375 7.228125a886.528125 886.528125 0 0 0 91.096875 111.571875l-0.28125-0.28125 12.740625 13.078125-12.740625 13.078125c-71.184375 73.125-139.809375 113.371875-193.1625 113.371875z m-44.634375-241.003125c-25.734375 100.8-19.096875 175.528125 18.196875 197.015625 37.0125 21.121875 106.621875-11.446875 180-82.8a943.396875 943.396875 0 0 1-75.009375-92.53125l-1.940625-2.896875a936.984375 936.984375 0 0 1-127.51875-19.996875l6.3 1.209375z m224.409375 23.540625c-30.853125 0-62.578125-1.35-94.359375-3.965625l-8.803125-0.759375-5.0625-7.228125a1077.271875 1077.271875 0 0 1-47.728125-74.221875l-2.896875-5.34375a1015.875 1015.875 0 0 1-40.78125-76.725l-2.953125-6.834375-3.740625-7.9875 3.740625-7.9875a1083.853125 1083.853125 0 0 1 46.63125-88.903125l-2.896875 5.371875a1136.25 1136.25 0 0 1 50.625-79.565625l5.0625-7.228125 8.803125-0.759375a1131.384375 1131.384375 0 0 1 192.9375 0.309375l-4.21875-0.309375 8.775 0.759375 5.034375 7.228125a1099.771875 1099.771875 0 0 1 91.4625 156.375l2.925 6.75 3.796875 7.9875-3.796875 7.9875a1106.1 1106.1 0 0 1-96.721875 166.640625l2.334375-3.515625-5.034375 7.228125-8.775 0.759375a1155.459375 1155.459375 0 0 1-94.3875 3.965625z m-82.378125-40.640625c55.490625 4.1625 109.265625 4.1625 164.8125 0a1056.65625 1056.65625 0 0 0 79.509375-136.0125l2.840625-6.4125a1065.684375 1065.684375 0 0 0-84.7125-145.96875l2.334375 3.54375a1105.425 1105.425 0 0 0-168.525 0.225l3.76875-0.225a1039.21875 1039.21875 0 0 0-79.59375 136.125l-2.784375 6.3a1082.86875 1082.86875 0 0 0 84.76875 146.053125l-2.390625-3.65625z" fill="#61DAFB" p-id="1884"></path></svg>