<?xml version="1.0" standalone="no"?><!DOCTYPE svg PUBLIC "-//W3C//DTD SVG 1.1//EN" "http://www.w3.org/Graphics/SVG/1.1/DTD/svg11.dtd"><svg t="1688560809043" class="icon" viewBox="0 0 1024 1024" version="1.1" xmlns="http://www.w3.org/2000/svg" p-id="1745" xmlns:xlink="http://www.w3.org/1999/xlink" width="200" height="200"><path d="M90.125 512v421.875h843.75V90.125H90.125z m679.95703125-33.61816406a104.99414063 104.99414063 0 0 1 52.76074219 30.40136718c7.77832031 8.30566406 19.30078125 23.4140625 20.22363281 27.07910157 0.29003906 1.0546875-36.41308594 25.65527344-58.640625 39.47167968-0.81738281 0.52734375-4.03417969-2.953125-7.62011719-8.30566406-10.88964844-15.8203125-22.25390625-22.64941406-39.65625-23.8359375-25.60253906-1.76660156-42.05566406 11.62792969-41.89746093 33.98730469l-0.02636719 1.31835937c0 5.29980469 1.34472656 10.30957031 3.69140625 14.68652344l-0.07910156-0.15820312c5.61621094 11.62792969 16.11035156 18.64160156 48.85839843 32.80078125 60.43359375 26.02441406 86.2734375 43.13671875 102.33105469 67.5 17.9296875 27.18457031 21.96386719 70.58496094 9.78222656 102.85839843-13.36816406 35.09472656-46.59082031 58.93066406-93.33984375 66.78808594-14.44921875 2.55761719-48.7265625 2.18847656-64.25683593-0.6328125-33.88183594-6.03808594-66.0234375-22.78125-85.85156251-44.74511718-7.77832031-8.54296875-22.91308594-30.92871094-21.96386718-32.51074219 0.39550781-0.55371094 3.87597656-2.71582031 7.72558593-4.95703125 3.796875-2.13574219 17.95605469-10.3359375 31.35058594-18.11425781l24.2578125-14.05371094 5.08886719 7.51464844c7.09277344 10.83691406 22.59667969 25.70800781 31.98339844 30.66503906 26.92089844 14.21191406 63.88769531 12.20800781 82.08105468-4.13964844a30.98144531 30.98144531 0 0 0 10.99511719-25.36523437v0.07910156c0-9.78222656-1.23925781-14.05371094-6.328125-21.43652344-6.5390625-9.36035156-19.93359375-17.21777344-57.98144531-33.75-43.53222656-18.74707031-62.25292969-30.375-79.41796875-48.85839844a111.13769531 111.13769531 0 0 1-22.96582031-41.39648437l-0.2109375-0.79101563c-3.19042969-11.91796875-4.0078125-41.79199219-1.4765625-53.81542968 8.96484375-42.08203125 40.7109375-71.37597656 86.51074218-80.07714844 14.87109375-2.82128906 49.43847656-1.76660156 64.01953125 1.87207031z m-198.0703125 35.2265625l0.29003906 34.56738281H462.4296875v312.05566406h-77.70410156V548.17578125H274.95898437v-33.88183594c0-18.7734375 0.39550781-34.46191406 0.92285157-34.8046875 0.421875-0.55371094 67.26269531-0.84375 148.26269531-0.71191406l147.47167969 0.421875z" fill="#007ACC" p-id="1746"></path></svg>