<?xml version="1.0" standalone="no"?><!DOCTYPE svg PUBLIC "-//W3C//DTD SVG 1.1//EN" "http://www.w3.org/Graphics/SVG/1.1/DTD/svg11.dtd"><svg t="1687855711571" class="icon" viewBox="0 0 1024 1024" version="1.1" xmlns="http://www.w3.org/2000/svg" p-id="1133" xmlns:xlink="http://www.w3.org/1999/xlink" width="200" height="200"><path d="M572.30222222 157.46844445c29.12711111 50.74488889 45.96622222 109.45422222 45.96622223 172.14577777 0 191.03288889-154.85155555 345.88444445-345.88444445 345.88444445-26.05511111 0-51.42755555-2.95822222-75.88977778-8.41955556C253.15555555 794.96533333 381.15555555 884.28088889 529.97688889 884.28088889c201.38666667 0 364.65777778-163.27111111 364.65777778-364.65777778 0-187.05066667-140.85688889-341.10577778-322.33244445-362.15466666zM285.46844445 206.62044445h-44.6008889v-44.6008889c0-12.288-10.01244445-22.30044445-22.30044444-22.30044444s-22.30044445 10.01244445-22.30044444 22.30044444v44.6008889h-44.60088889c-12.288 0-22.30044445 10.01244445-22.30044445 22.30044444s10.01244445 22.30044445 22.30044445 22.30044444h44.60088889V295.82222222c0 12.288 10.01244445 22.30044445 22.30044444 22.30044445s22.30044445-10.01244445 22.30044444-22.30044445v-44.60088889h44.6008889c12.288 0 22.30044445-10.01244445 22.30044444-22.30044444s-10.01244445-22.30044445-22.30044444-22.30044444z" fill="#FFF0C2" p-id="1134"></path><path d="M278.64177778 208.896h-40.04977778v-40.04977778c0-11.03644445-8.98844445-20.02488889-20.02488889-20.02488889-11.03644445 0-20.02488889 8.98844445-20.02488889 20.02488889v40.04977778h-40.04977777c-11.03644445 0-20.02488889 8.98844445-20.0248889 20.02488889 0 11.03644445 8.98844445 20.02488889 20.0248889 20.02488889h40.04977777V288.99555555c0 11.03644445 8.98844445 20.02488889 20.02488889 20.0248889 11.03644445 0 20.02488889-8.98844445 20.02488889-20.0248889v-40.04977777h40.04977778c11.03644445 0 20.02488889-8.98844445 20.02488889-20.02488889 0-11.03644445-8.98844445-20.02488889-20.02488889-20.02488889z" fill="#FFC445" p-id="1135"></path><path d="M416.19911111 470.24355555h-31.28888889v-31.28888888c0-8.64711111-7.05422222-15.70133333-15.70133333-15.70133334-8.64711111 0-15.70133333 7.05422222-15.70133334 15.70133334v31.28888888h-31.28888888c-8.64711111 0-15.70133333 7.05422222-15.70133334 15.70133334 0 8.64711111 7.05422222 15.70133333 15.70133334 15.70133333h31.28888888v31.28888889c0 8.64711111 7.05422222 15.70133333 15.70133334 15.70133334 8.64711111 0 15.70133333-7.05422222 15.70133333-15.70133334v-31.28888889h31.28888889c8.64711111 0 15.70133333-7.05422222 15.70133334-15.70133333 0-8.64711111-7.05422222-15.70133333-15.70133334-15.70133334z" fill="#FFF0C2" p-id="1136"></path><path d="M411.42044445 471.83644445h-28.10311112V443.73333333c0-7.73688889-6.25777778-14.10844445-14.10844444-14.10844444-7.73688889 0-14.10844445 6.25777778-14.10844444 14.10844444v28.10311112h-28.10311112c-7.73688889 0-14.10844445 6.25777778-14.10844444 14.10844444 0 7.73688889 6.25777778 14.10844445 14.10844444 14.10844444h28.10311112v28.10311112c0 7.73688889 6.25777778 14.10844445 14.10844444 14.10844444 7.73688889 0 14.10844445-6.25777778 14.10844444-14.10844444v-28.10311112h28.10311112c7.73688889 0 14.10844445-6.25777778 14.10844444-14.10844444 0-7.73688889-6.25777778-14.10844445-14.10844444-14.10844444z" fill="#FFC445" p-id="1137"></path><path d="M570.48177778 183.18222222c27.07911111 47.104 42.66666667 101.71733333 42.66666667 159.97155556 0 177.49333333-143.92888889 321.42222222-321.42222223 321.42222222-24.23466667 0-47.78666667-2.73066667-70.54222222-7.85066667 52.67911111 118.89777778 171.57688889 201.84177778 309.93066667 201.84177778 187.16444445 0 338.944-151.77955555 338.944-338.944 0-173.73866667-130.95822222-316.98488889-299.57688889-336.44088889z" fill="#FFB948" p-id="1138"></path></svg>