<?xml version="1.0" standalone="no"?><!DOCTYPE svg PUBLIC "-//W3C//DTD SVG 1.1//EN" "http://www.w3.org/Graphics/SVG/1.1/DTD/svg11.dtd"><svg t="1687851569759" class="icon" viewBox="0 0 1024 1024" version="1.1" xmlns="http://www.w3.org/2000/svg" p-id="1067" xmlns:xlink="http://www.w3.org/1999/xlink" width="200" height="200"><path d="M512 962C263.46464844 962 62 760.53535156 62 512S263.46464844 62 512 62s450 201.46464844 450 450-201.46464844 450-450 450z m227.76767578-499.99482422h-255.53320312a22.23017578 22.23017578 0 0 0-22.22929688 22.23017578l-0.02285156 55.55214844c0 12.2625 9.94482422 22.23017578 22.20732422 22.23017578h155.5875c12.28535156 0 22.23017578 9.94482422 22.23017578 22.20732422v11.11464844a66.66767578 66.66767578 0 0 1-66.66767578 66.66767578h-211.13964844a22.23017578 22.23017578 0 0 1-22.20732422-22.23017578V428.68232422a66.66767578 66.66767578 0 0 1 66.64482422-66.66767578h311.08535156a22.23017578 22.23017578 0 0 0 22.20732422-22.22929688l0.06767578-55.55302734a22.23017578 22.23017578 0 0 0-22.20820312-22.23017578H428.6375a166.65820313 166.65820313 0 0 0-166.65820313 166.68017578V739.76855469c0 12.28447266 9.94570313 22.23017578 22.23105469 22.23017578h327.77929688a149.98535156 149.98535156 0 0 0 149.98535156-149.98535156V484.2125a22.23017578 22.23017578 0 0 0-22.23017578-22.20732422z" fill="#C71D23" p-id="1068"></path></svg>