<?xml version="1.0" standalone="no"?><!DOCTYPE svg PUBLIC "-//W3C//DTD SVG 1.1//EN" "http://www.w3.org/Graphics/SVG/1.1/DTD/svg11.dtd"><svg t="1687243425076" class="icon" viewBox="0 0 1024 1024" version="1.1" xmlns="http://www.w3.org/2000/svg" p-id="834" xmlns:xlink="http://www.w3.org/1999/xlink" width="200" height="200"><path d="M952.32 633.28l-69.86666667-59.73333333c3.30666667-20.26666667 5.01333333-40.96 5.01333334-61.65333334s-1.70666667-41.38666667-5.01333334-61.65333333l69.86666667-59.73333333c10.77333333-9.17333333 14.72-24.10666667 9.92-37.54666667l-0.96-2.77333333c-19.30666667-53.86666667-47.89333333-103.36-85.01333333-147.09333334l-1.92-2.24c-9.17333333-10.77333333-24-14.82666667-37.44-10.13333333l-86.72 30.82666667c-32-26.24-67.73333333-46.93333333-106.34666667-61.44l-16.74666667-90.66666667c-2.56-13.97333333-13.54666667-24.85333333-27.52-27.41333333l-2.88-0.53333334c-55.57333333-10.02666667-114.02666667-10.02666667-169.6 0l-2.88 0.53333334c-13.97333333 2.56-24.96 13.44-27.52 27.41333333l-16.85333333 91.09333333c-38.29333333 14.50666667-73.81333333 35.09333333-105.6 61.22666667l-87.36-31.04c-13.33333333-4.69333333-28.26666667-0.74666667-37.44 10.13333333l-1.92 2.24c-37.12 43.84-65.70666667 93.33333333-85.01333333 147.09333334l-0.96 2.77333333c-4.8 13.33333333-0.85333333 28.26666667 9.92 37.54666667l70.72 60.37333333c-3.30666667 20.05333333-4.90666667 40.53333333-4.90666667 60.90666667 0 20.48 1.6 40.96 4.90666667 60.90666666L71.46666667 633.06666667c-10.77333333 9.17333333-14.72 24.10666667-9.92 37.54666666l0.96 2.77333334c19.30666667 53.76 47.89333333 103.36 85.01333333 147.09333333l1.92 2.24c9.17333333 10.77333333 24 14.82666667 37.44 10.13333333l87.36-31.04c31.78666667 26.13333333 67.30666667 46.82666667 105.6 61.22666667l16.85333333 91.09333333c2.56 13.97333333 13.54666667 24.85333333 27.52 27.41333334l2.88 0.53333333c27.84 5.01333333 56.32 7.57333333 84.8 7.57333333 28.48 0 57.06666667-2.56 84.8-7.57333333l2.88-0.53333333c13.97333333-2.56 24.96-13.44 27.52-27.41333334l16.74666667-90.66666666c38.61333333-14.50666667 74.34666667-35.09333333 106.34666667-61.44l86.72 30.82666666c13.33333333 4.69333333 28.26666667 0.74666667 37.44-10.13333333l1.92-2.24c37.12-43.84 65.70666667-93.33333333 85.01333333-147.09333333l0.96-2.77333334c4.8-13.12 0.85333333-28.05333333-9.92-37.33333333zM806.72 462.82666667c2.66666667 16.10666667 4.05333333 32.64 4.05333333 49.17333333s-1.38666667 33.06666667-4.05333333 49.17333333l-7.04 42.77333334 79.68 68.16c-12.05333333 27.84-27.30666667 54.08-45.44 78.50666666L734.93333333 715.52l-33.49333333 27.52c-25.49333333 20.90666667-53.86666667 37.33333333-84.58666667 48.85333333l-40.64 15.25333334-19.09333333 103.46666666c-29.97333333 3.41333333-60.58666667 3.41333333-90.66666667 0l-19.09333333-103.68-40.32-15.46666666c-30.4-11.52-58.66666667-27.94666667-83.94666667-48.74666667l-33.49333333-27.62666667-99.62666667 35.41333334c-18.13333333-24.42666667-33.28-50.77333333-45.44-78.50666667l80.53333334-68.8-6.93333334-42.66666667c-2.56-15.89333333-3.94666667-32.32-3.94666666-48.53333333 0-16.32 1.28-32.64 3.94666666-48.53333333l6.93333334-42.66666667-80.53333334-68.8c12.05333333-27.84 27.30666667-54.08 45.44-78.50666667l99.62666667 35.41333334 33.49333333-27.62666667c25.28-20.8 53.54666667-37.22666667 83.94666667-48.74666667l40.42666667-15.25333333 19.09333333-103.68c29.97333333-3.41333333 60.58666667-3.41333333 90.66666667 0l19.09333333 103.46666667 40.64 15.25333333c30.61333333 11.52 59.09333333 27.94666667 84.58666667 48.85333333l33.49333333 27.52 98.98666667-35.09333333c18.13333333 24.42666667 33.28 50.77333333 45.44 78.50666667L799.78666667 420.26666667l6.93333333 42.56z" p-id="835"></path><path d="M512 313.6c-103.68 0-187.73333333 84.05333333-187.73333333 187.73333333s84.05333333 187.73333333 187.73333333 187.73333334 187.73333333-84.05333333 187.73333333-187.73333334-84.05333333-187.73333333-187.73333333-187.73333333z m84.48 272.21333333C573.86666667 608.32 543.89333333 620.8 512 620.8c-31.89333333 0-61.86666667-12.48-84.48-34.98666667C405.01333333 563.2 392.53333333 533.22666667 392.53333333 501.33333333c0-31.89333333 12.48-61.86666667 34.98666667-84.48C450.13333333 394.24 480.10666667 381.86666667 512 381.86666667c31.89333333 0 61.86666667 12.37333333 84.48 34.98666666C618.98666667 439.46666667 631.46666667 469.44 631.46666667 501.33333333c0 31.89333333-12.48 61.86666667-34.98666667 84.48z" p-id="836"></path></svg>