<?xml version="1.0" standalone="no"?><!DOCTYPE svg PUBLIC "-//W3C//DTD SVG 1.1//EN" "http://www.w3.org/Graphics/SVG/1.1/DTD/svg11.dtd"><svg t="1687851581342" class="icon" viewBox="0 0 1024 1024" version="1.1" xmlns="http://www.w3.org/2000/svg" p-id="1206" xmlns:xlink="http://www.w3.org/1999/xlink" width="200" height="200"><path d="M189.66755555 662.07288889c-0.11377778 0.11377778-0.22755555 0.34133333-0.34133333 0.45511111 4.43733333-5.00622222 9.10222222-10.24 13.65333333-15.36-8.53333333 9.55733333-13.312 14.90488889-13.312 14.90488889z" fill="#1590E9" p-id="1207"></path><path d="M946.63111111 268.62933333l29.12711111-17.18044444c11.83288889-6.94044445 10.35377778-24.46222222-2.38933333-29.46844444l-13.99466667-5.46133334c-20.48-8.07822222-38.912-20.70755555-53.13422222-37.54666666-17.86311111-21.04888889-50.85866667-51.31377778-103.424-69.1768889-59.96088889-20.48-162.58844445-16.384-219.81866667-11.94666666-18.09066667 1.36533333-28.44444445 20.93511111-19.79733333 36.97777778 48.46933333 89.42933333 19.00088889 130.048-6.48533333 160.08533333-39.02577778 45.96622222-110.81955555 127.65866667-182.84088889 208.896 24.91733333-27.87555555 47.55911111-53.248 66.10488889-74.06933333 41.41511111-46.42133333 103.87911111-69.97333333 165.09155555-58.82311112 195.12888889 35.61244445 217.31555555 288.31288889-10.46755555 438.72711112 29.696-1.59288889 59.84711111-3.75466667 90.112-6.82666667 287.40266667-29.58222222 310.15822222-264.07822222 248.03555555-379.904-22.07288889-41.07377778-25.25866667-68.83555555-22.86933333-95.45955555 2.27555555-24.46222222 15.70133333-46.42133333 36.75022222-58.82311112z" fill="#99C236" p-id="1208"></path><path d="M171.57688889 731.02222222C203.776 695.06844445 288.99555555 599.60888889 373.98755555 503.69422222c-62.12266667 69.632-138.58133333 155.53422222-202.41066666 227.328z" fill="#1590E9" p-id="1209"></path><path d="M175.55911111 792.576c-22.18666667-2.84444445-32.08533333-29.12711111-17.63555556-46.19377778-58.82311111 66.33244445-104.33422222 117.76-112.75377777 128.11377778-27.42044445 33.56444445 281.82755555 111.38844445 549.09155555-64.62577778 0.11377778-0.11377778 0.34133333-0.22755555 0.45511112-0.34133333-178.06222222 9.32977778-339.62666667-6.71288889-419.15733334-16.95288889z" fill="#CAC134" p-id="1210"></path><path d="M605.184 370.80177778c-61.21244445-11.15022222-123.67644445 12.40177778-165.09155555 58.82311111-18.54577778 20.70755555-41.18755555 46.08-66.1048889 74.06933333C288.99555555 599.60888889 203.776 695.06844445 171.57688889 731.02222222c-4.66488889 5.23377778-9.216 10.35377778-13.65333334 15.36-14.44977778 16.95288889-4.55111111 43.23555555 17.63555556 46.19377778 79.53066667 10.24 241.09511111 26.28266667 419.04355556 17.06666667 227.78311111-150.528 205.71022222-403.22844445 10.58133333-438.84088889z" fill="#029F40" p-id="1211"></path></svg>