<?xml version="1.0" encoding="utf-8"?>
<!-- Generator: Adobe Illustrator 22.1.0, SVG Export Plug-In . SVG Version: 6.00 Build 0)  -->
<svg version="1.2" baseProfile="tiny" id="图层_1"
	 xmlns="http://www.w3.org/2000/svg" xmlns:xlink="http://www.w3.org/1999/xlink" x="0px" y="0px" viewBox="0 0 800 800"
	 xml:space="preserve">
<g>
	<path fill="#424242" d="M-100,900c0-333.3,0-666.7,0-1000c333.3,0,666.7,0,1000,0c0,333.3,0,666.7,0,1000
		C566.7,900,233.3,900-100,900z M378.9,528.8c0.3-0.3,0.6-0.5,0.9-0.8c0.1-2.3,0.2-4.6,0.3-6.8c1-0.4,1.9-0.8,2.9-1.2
		c3.8,2.9,7.4,6.1,11.4,8.7c2.3,1.5,5,3.1,7.6,3.1c12.5,0.3,25,0.1,37.5,0.2c2.2,0,3.1-0.6,2.5-2.8c0.4-0.7,0.8-1.5,1.2-2.2
		c21.9,6.9,44.5,4.8,66.9,4.9c0.6,0,1.3-1.8,1.9-2.7c3.4,0.4,3-2.1,3.2-4.2c11.6,4.8,24,5.9,36.3,6.8c6.5,0.5,13-0.6,19.5-1
		c1,0.1,2,0.2,3,0.3c0.4,0.3,0.7,0.6,1.1,0.8c6.6,0,13.2,0,19.8,0c0.4-0.3,0.7-0.6,1.1-0.9c0.7-0.1,1.3-0.2,2-0.3
		c1.5,0.4,3.1,1.1,4.6,1.1c3.6-0.1,7.2-0.8,10.8-0.8c11.4,0.2,22.8,0.5,34.2,0.9c2.2,0.1,3.1-0.6,2.4-2.8c1.3-0.2,2.5-0.3,3.7-0.5
		c0-35.3,0-70.4,0-105.9c-6.4,0-12.6,0-18.7,0c-1.3-0.6-2.6-1.5-4.1-1.8c-1.9-0.4-4-0.1-5.9-0.3c-13.3-1.2-26.6-2.5-39.8-3.8
		c0-4.3,0-8.7,0-13c6,0,12,0,17.9,0c16.9,0,33.8,0,52,0c-1.4-13.5-1.9-26.4-4.5-38.8c-2-9.7-6.4-19-15.2-25.3
		c-7.8-5.6-16.1-9.8-25.6-11.4c-11.1-1.9-22.3-3.2-33.2,0.3c-7.8,2.5-15.2,6.1-22.7,9.2c-1.2,0.1-2.4-0.1-3.4,0.4
		c-11.8,4.8-23.6,9.7-35.4,14.6c0-7.3,0-14.5,0-21.9c-14.3,0-27.8,0-41.3,0c-0.7,0-1.4,0.6-2,1c-1.8,1.3-3.7,2.6-5.4,4.1
		c-5.5,4.9-10.9,9.9-16.3,14.9c-2.3-6.3-4.6-12.7-7.1-19.5c-14.3,0-28.7,0-43.1,0c0,24.5,0,48.8,0,73.1c0,25.1-0.1,50.3-0.2,75.4
		c-4.3,0-8.6,0-12.8-0.1c0-38.9-0.2-77.8,0.2-116.7c0.1-9.3-3.4-17.5-5.5-26.1c-0.1-0.5-1-0.7-1.5-1.1c-0.1-1.3-0.2-2.7-0.3-4
		c-0.3-0.3-0.5-0.6-0.8-0.8c-16.9,0-33.8,0-51,0c0,12.9,0,25.4,0,37.9c0,36-0.1,72-0.2,108c-4.6,0-9.2,0-13.8,0
		c0-47.8,0-95.6-0.1-143.4c0-4.3,1.1-5.9,5.6-5.7c6.8,0.4,13.7,0.3,20.5,0c1.4-0.1,2.7-1.9,4-2.9c0-10.6,0.1-21.3-0.1-31.9
		c0-2.6-0.6-5.3-1.8-7.6c-7.4-15.2-15-30.4-22.7-45.5c-0.8-1.5-2.2-2.7-3.3-4c0.3-3.9-2.5-3-4.6-3c-53.5,0-107,0-160.5,0
		c-1.3,0-2.5,0.2-3.8,0.3c0,19.7,0,39.2,0,58.5c1.4,0.1,2.6,0.2,3.7,0.3c1.5,1.2,2.8,2.7,4.4,3.5c4,1.9,8.1,3.6,12.3,5.3
		c8.4,3.4,16.7,6.8,25.1,10.1c0.1,32.4,0.1,64.8,0.2,97.3c0,28.9-0.1,57.9-0.1,86.8c-10.1,4.5-20.2,8.8-30.3,13.4
		c-1.1,0.5-1.8,2.2-3.4,4.5c12.2,0,23,0,33.7,0c0.4,5.4,0.8,10.8,1.2,16.2c-1,4.2,2.3,2.8,3.9,2.8c17.8,0.1,35.7-0.9,53.4,0.4
		c13.9,1,24.6-2.4,32.6-13.8c3.3-4.7,7.8-6.2,13.4-5.6c1.9,0.2,4.7,0.1,5.9-1.1c4.3-4.2,7.9-8.9,12-13.3c4-4.3,8.3-8.4,12.5-12.6
		c0,4.7,0.1,9.4,0.1,14.1c-1.7,1.9-3.5,3.6-5,5.6c-7.6,10.1-7.6,10.2-0.6,20.3c0.9,1.3,1.9,2.7,3.2,3.7c1.4,1,3.1,2.2,4.6,2.2
		c15.1,0.2,30.2,0.2,45.3,0c1.2,0,2.4-1.8,3.6-2.7L378.9,528.8z"/>
	<path fill="#FEFEFE" d="M194,529.2c-0.4-5.4-0.8-10.8-1.2-16.2c0-6,0-12,0-18c0.1-28.9,0.1-57.9,0.1-86.8c0-32.4-0.1-64.8-0.2-97.3
		c0-6.3,0-12.5,0-18.8c-14.2,0-28,0-41.8,0c-1.2-0.1-2.3-0.2-3.7-0.3c0-19.4,0-38.8,0-58.5c1.2-0.1,2.5-0.3,3.8-0.3
		c53.5,0,107,0,160.5,0c2.2,0,4.9-0.8,4.6,3c-0.1,18.6-0.1,37.3-0.2,55.9c-15.2,0-30.5,0-45.8,0c0,8.2,0,15.6,0,23.1
		c-0.1,34.6-0.2,69.2-0.2,103.8c0,36.4,0.1,72.8,0.2,109.3c-1.7,0.3-3.3,0.9-5,0.9C241.4,529.1,217.7,529.1,194,529.2z"/>
	<path fill="#FEFEFE" d="M515.2,525c-0.2,2.1,0.2,4.6-3.2,4.2c-11.9-0.4-23.8-1.2-35.6-1c-5.1,0.1-8.4-0.8-9.5-6.2
		c-1-4.1-1.8-8.2-2.9-12.2c-5.3-18.5-10.6-37-16-55.5c-1.3-4.4-2.8-8.7-4.1-13c-0.2,0.1-0.4,0.2-0.7,0.2c0,13.1,0,26.3,0,39.4
		c0,15.3,0,30.6,0,46c-0.4,0.7-0.8,1.5-1.2,2.2c-13.9,0-27.8,0-42.1,0c0-16.9,0-33,0-49.2c0.1-25.1,0.1-50.3,0.2-75.4
		c0-24.3,0-48.6,0-73.1c14.5,0,28.8,0,43.1,0c2.5,6.8,4.8,13.1,7.1,19.5c0,0.3-0.2,0.7-0.1,1c5.6,17.5,11.2,35.1,16.9,52.6
		c1.4,4.3,2.8,8.7,4.1,13c0.3-0.1,0.5-0.2,0.8-0.3c0-28.5,0-56.9,0-85.4c0.7-0.3,1.4-1,2-1c13.5-0.1,27,0,41.3,0
		c0,7.4,0,14.7,0,21.9c0,0.4,0,0.7,0,1.1c0,1.3,0,2.7,0,4c0,1.7,0,3.3,0,5c0,1.7,0,3.3,0,5c0,41.3,0,82.7,0,124
		C515.2,503,515.2,514,515.2,525z"/>
	<path fill="#FEFEFE" d="M585.2,404c0,4.3,0,8.7,0,13c-0.1,21.4-0.3,42.7,0,64.1c0.1,5,1.8,10,2.8,15c2.7,5,6.4,5.3,13.2,1
		c0.7-3.4,1.8-6.9,1.9-10.3c0.2-11.2,0.1-22.3,0.1-34c-2.7,0-5.8,0-8.8,0c0-10.2,0-19.9,0-30c13.8,0,27.2,0,40.7,0
		c6.1,0,12.3,0,18.7,0c0,35.5,0,70.6,0,105.9c-1.2,0.2-2.5,0.3-3.7,0.5c-2.6,0.2-5.2,0.2-7.7,0.7c-10.5,2.2-19.7-2.4-23.8-12
		c-0.3-0.7-0.7-1.3-0.8-1.6c-6.7,5-13.2,9.7-19.6,14.5c-0.7,0.1-1.3,0.2-2,0.3c-0.4,0.3-0.7,0.6-1.1,0.9c-6.6,0-13.2,0-19.8,0
		c-0.4-0.3-0.7-0.6-1.1-0.8c-1-0.1-2-0.2-3-0.3c-3.6-1.7-7.5-2.9-10.6-5.1c-5-3.6-9.6-7.8-14.3-11.8c-0.3-0.7-0.4-1.6-0.8-2.2
		c-8.2-12.5-9.7-26.9-10-41c-0.8-30.3-0.3-60.5-0.1-90.8c0-5.6,1.1-11.3,1.8-16.9c0.4-2,0.9-4,1.3-6c1-2,1.9-4,2.9-6
		c1.7-2,3.4-4,5.1-6c2.6-2.4,5.2-4.7,7.8-7.1c7.6-3.1,15-6.7,22.7-9.2c10.9-3.5,22.1-2.2,33.2-0.3c9.5,1.6,17.8,5.7,25.6,11.4
		c8.8,6.3,13.1,15.6,15.2,25.3c2.6,12.4,3,25.3,4.5,38.8c-18.2,0-35.1,0-52,0c0-9.8,0.3-19.7-0.3-29.5c-0.2-3.8-1.8-8-4-11.1
		c-1.2-1.7-5.1-2.4-7.6-2.2c-1.5,0.2-3.9,3-4,4.8C586.2,378.7,585.8,391.3,585.2,404z"/>
	<path fill="#FEFEFE" d="M327.9,500c0-4.7-0.1-9.4-0.1-14.1c0-3,0-6,0-8.9c0.1-36,0.1-72,0.2-108c0-12.5,0-25,0-37.9
		c17.2,0,34.1,0,51,0c0.3,0.3,0.5,0.6,0.8,0.8c0.1,1.3,0.2,2.7,0.3,4c-0.1,21.5-0.2,42.9-0.1,64.4c0,40.3,0.1,80.5,0.1,120.8
		c-0.1,2.3-0.2,4.6-0.3,6.8c-0.3,0.3-0.6,0.5-0.9,0.8l0.1,0.3c-16.9,0-33.9,0-51.2,0C327.9,519,327.9,509.5,327.9,500z"/>
	<path fill="#2E2E2E" d="M270.2,315c0-7.5,0-14.9,0-23.1c15.3,0,30.5,0,45.8,0c2.7,3.1,5.6,6,8.1,9.3c5.5,7.2,10.7,14.7,16.2,21.9
		c0.8,1,2.5,1.3,3.8,1.9c-1.3,1-2.6,2.8-4,2.9c-6.8,0.3-13.7,0.4-20.5,0c-4.5-0.2-5.6,1.4-5.6,5.7c0.1,47.8,0.1,95.6,0.1,143.4
		c-0.5,3.3,0.1,7.7-1.8,9.8c-7.3,8.1-15.4,15.5-23.2,23.2c-0.8-9.4-1.4-18.8-2.3-28.2c-1.2-13-2.6-26-3.7-39.1
		c-0.8-9.7-1.3-19.5-2.2-29.2c-1.9-20.4-4-40.9-5.8-61.3c-0.9-9.9-1.2-19.8-2.2-29.7C272.6,319.9,271.1,317.5,270.2,315z"/>
	<path fill="#343434" d="M344,325c-1.3-0.6-3-0.9-3.8-1.9c-5.5-7.2-10.7-14.7-16.2-21.9c-2.5-3.3-5.4-6.2-8.1-9.3
		c0.1-18.6,0.1-37.3,0.2-55.9c1.1,1.3,2.5,2.5,3.3,4c7.7,15.1,15.3,30.3,22.7,45.5c1.1,2.3,1.7,5,1.8,7.6
		C344.1,303.7,344,314.4,344,325z"/>
	<path fill="#2E2E2E" d="M587.9,496.1c-1-5-2.7-10-2.8-15c-0.3-21.4,0-42.7,0-64.1c13.3,1.3,26.5,2.5,39.8,3.8c2,0.2,4-0.1,5.9,0.3
		c1.4,0.3,2.7,1.2,4.1,1.8c-13.5,0-26.9,0-40.7,0c0,10.1,0,19.8,0,30c3,0,6.1,0,8.8,0c0,11.6,0.2,22.8-0.1,34
		c-0.1,3.4-1.2,6.9-1.9,10.3C596.7,496.8,592.3,496.4,587.9,496.1z"/>
	<path fill="#333333" d="M380.1,521.2c0-40.3-0.1-80.5-0.1-120.8c0-21.5,0.1-42.9,0.1-64.4c0.5,0.4,1.4,0.6,1.5,1.1
		c2.1,8.6,5.6,16.8,5.5,26.1C386.8,402.1,387,441,387,480c-0.8,6.7-1.8,13.4-2.5,20.1c-0.7,6.6-1,13.3-1.5,19.9
		C382.1,520.4,381.1,520.8,380.1,521.2z"/>
	<path fill="#272727" d="M546.1,514c4.8,4,9.3,8.2,14.3,11.8c3.2,2.2,7.1,3.4,10.6,5.1c-6.5,0.4-13.1,1.4-19.5,1
		c-12.3-0.9-24.7-2-36.3-6.8c0-11,0-22,0-33c8.4,6.3,16.9,12.7,25.4,19C542.2,512.2,544.2,513,546.1,514z"/>
	<path fill="#2E2E2E" d="M471.9,332c0,28.5,0,56.9,0,85.4c-0.3,0.1-0.5,0.2-0.8,0.3c-1.4-4.3-2.8-8.7-4.1-13
		c-5.6-17.5-11.2-35.1-16.9-52.6c-0.1-0.3,0.1-0.7,0.1-1c5.4-5,10.8-10,16.3-14.9C468.1,334.6,470.1,333.4,471.9,332z"/>
	<path fill="#272727" d="M383,520c0.5-6.6,0.8-13.3,1.5-19.9c0.7-6.7,1.6-13.4,2.5-20.1c4.3,0,8.6,0,12.8,0.1c0,16.1,0,32.3,0,49.2
		c14.3,0,28.2,0,42.1,0c0.7,2.3-0.2,2.9-2.5,2.8c-12.5-0.1-25,0.1-37.5-0.2c-2.6-0.1-5.4-1.6-7.6-3.1
		C390.4,526.1,386.8,522.9,383,520z"/>
	<path fill="#272727" d="M466.8,522c1.1,5.3,4.4,6.2,9.5,6.2c11.9-0.1,23.8,0.6,35.6,1c-0.6,0.9-1.3,2.7-1.9,2.7
		c-22.4-0.1-45,2-66.9-4.9c0-15.3,0-30.6,0-46c0.6,0.5,1.4,0.9,1.8,1.5c4.1,7.9,8,15.9,12.3,23.7C460.1,511.6,463.6,516.8,466.8,522
		z"/>
	<path fill="#272727" d="M289,510c7.8-7.7,15.9-15.1,23.2-23.2c1.9-2.1,1.2-6.5,1.8-9.8c4.6,0,9.2,0,13.8,0c0,3,0,6,0,8.9
		c-4.2,4.2-8.4,8.3-12.5,12.6c-4.1,4.4-7.7,9.1-12,13.3c-1.2,1.2-4,1.3-5.9,1.1c-5.6-0.6-10.1,0.9-13.4,5.6
		c-8,11.4-18.7,14.8-32.6,13.8c-17.7-1.3-35.6-0.3-53.4-0.4c-1.7,0-5,1.4-3.9-2.8c23.7-0.1,47.4-0.1,71.1-0.2c1.7,0,3.3-0.6,5-0.9
		C276.4,522,282.7,516,289,510z"/>
	<path fill="#2E2E2E" d="M585.2,404c0.6-12.7,1.1-25.3,2-37.9c0.1-1.8,2.4-4.6,4-4.8c2.5-0.3,6.4,0.4,7.6,2.2
		c2.2,3.1,3.8,7.3,4,11.1c0.6,9.8,0.2,19.7,0.3,29.5C597.1,404,591.1,404,585.2,404z"/>
	<path fill="#2D2D2D" d="M151,292.1c13.8,0,27.6,0,41.8,0c0,6.3,0,12.6,0,18.8c-8.4-3.4-16.8-6.7-25.1-10.1
		c-4.1-1.7-8.3-3.3-12.3-5.3C153.8,294.8,152.5,293.3,151,292.1z"/>
	<path fill="#272727" d="M327.9,500c0,9.5,0,18.9,0,29.1c17.3,0,34.3,0,51.2,0c-1.2,1-2.4,2.7-3.6,2.7c-15.1,0.2-30.2,0.2-45.3,0
		c-1.6,0-3.3-1.2-4.6-2.2c-1.3-1-2.3-2.4-3.2-3.7c-7-10.2-7.1-10.2,0.6-20.3C324.4,503.6,326.2,501.9,327.9,500z"/>
	<path fill="#272727" d="M192.8,495c0,6,0,12,0,18c-10.7,0-21.5,0-33.7,0c1.7-2.3,2.3-4,3.4-4.5C172.6,503.9,182.7,499.5,192.8,495z
		"/>
	<path fill="#282828" d="M597.9,530.8c6.5-4.8,13-9.6,19.6-14.5c0.2,0.3,0.5,0.9,0.8,1.6c4.1,9.7,13.3,14.2,23.8,12
		c2.5-0.5,5.1-0.5,7.7-0.7c0.7,2.2-0.2,2.9-2.4,2.8c-11.4-0.4-22.8-0.7-34.2-0.9c-3.6,0-7.2,0.7-10.8,0.8
		C601,532,599.5,531.2,597.9,530.8z"/>
	<path fill="#606060" d="M554,338c-2.6,2.4-5.2,4.7-7.8,7.1c-1.9,0.4-3.9,0.7-5.7,1.2c-8.4,2.5-16.8,5.2-25.3,7.7c0-0.4,0-0.7,0-1.1
		c11.8-4.9,23.6-9.8,35.4-14.6C551.6,337.9,552.8,338.1,554,338z"/>
	<path fill="#F5F5F5" d="M379.8,332c-0.3-0.3-0.5-0.6-0.8-0.8C379.3,331.4,379.6,331.7,379.8,332z"/>
	<path fill="#F5F5F5" d="M378.9,528.8c0.3-0.3,0.6-0.5,0.9-0.8C379.5,528.3,379.2,528.5,378.9,528.8z"/>
	<path fill="#272727" d="M574,531.1c0.4,0.3,0.7,0.6,1.1,0.8C574.7,531.7,574.4,531.4,574,531.1z"/>
	<path fill="#282828" d="M594.9,532c0.4-0.3,0.7-0.6,1.1-0.9C595.6,531.4,595.3,531.7,594.9,532z"/>
	<path fill="#343434" d="M289,510c-6.3,6-12.6,12-18.8,18c-0.1-36.4-0.2-72.8-0.2-109.3c0-34.6,0.1-69.2,0.2-103.8
		c0.9,2.5,2.4,4.9,2.7,7.5c0.9,9.9,1.3,19.8,2.2,29.7c1.8,20.4,4,40.9,5.8,61.3c0.9,9.7,1.3,19.5,2.2,29.2c1.1,13,2.5,26,3.7,39.1
		C287.6,491.2,288.2,500.6,289,510z"/>
	<path fill="#2E2E2E" d="M546.1,514c-1.9-1-3.9-1.8-5.6-3c-8.5-6.3-16.9-12.6-25.4-19c0-41.3,0-82.7,0-124c7.2-1.7,14.5-3.3,21.7-5
		c-0.6,5.6-1.7,11.3-1.8,16.9c-0.2,30.3-0.6,60.6,0.1,90.8c0.4,14.1,1.9,28.5,10,41C545.7,512.4,545.8,513.2,546.1,514z"/>
	<path fill="#2E2E2E" d="M466.8,522c-3.2-5.2-6.7-10.4-9.6-15.8c-4.3-7.8-8.2-15.8-12.3-23.7c-0.3-0.6-1.2-1-1.8-1.5
		c0-13.1,0-26.3,0-39.4c0.2-0.1,0.4-0.2,0.7-0.2c1.4,4.3,2.9,8.6,4.1,13c5.4,18.5,10.7,37,16,55.5
		C465.1,513.8,465.9,517.9,466.8,522z"/>
	<path fill="#3A3A3A" d="M536.9,363c-7.2,1.7-14.5,3.3-21.7,5c0-1.7,0-3.3,0-5c2.8-0.8,5.6-1.7,8.4-2.4c4.9-1.2,9.7-2.4,14.6-3.6
		C537.8,359,537.3,361,536.9,363z"/>
	<path fill="#545454" d="M515.2,354c8.4-2.6,16.8-5.2,25.3-7.7c1.9-0.6,3.8-0.8,5.7-1.2c-1.7,2-3.4,4-5.1,6
		c-1.1,0.2-2.3,0.2-3.4,0.5c-7.5,2.1-15,4.3-22.5,6.4C515.2,356.7,515.2,355.3,515.2,354z"/>
	<path fill="#474747" d="M515.2,358c7.5-2.1,15-4.3,22.5-6.4c1.1-0.3,2.2-0.3,3.4-0.5c-1,2-1.9,4-2.9,6c-4.9,1.2-9.7,2.3-14.6,3.6
		c-2.8,0.7-5.6,1.6-8.4,2.4C515.2,361.3,515.2,359.7,515.2,358z"/>
	<path fill="#6D6D6D" d="M587.9,496.1c4.4,0.3,8.8,0.7,13.2,1C594.2,501.4,590.6,501.1,587.9,496.1z"/>
</g>
</svg>
