<?xml version="1.0" standalone="no"?><!DOCTYPE svg PUBLIC "-//W3C//DTD SVG 1.1//EN" "http://www.w3.org/Graphics/SVG/1.1/DTD/svg11.dtd"><svg t="1688354792260" class="icon" viewBox="0 0 1024 1024" version="1.1" xmlns="http://www.w3.org/2000/svg" p-id="1574" xmlns:xlink="http://www.w3.org/1999/xlink" width="200" height="200"><path d="M95.91921778 681.22851555v-504.86992554c0-2.42725888 0.48545223-4.8545189 0.97090332-7.76723001 0.48545223-2.42725888 0.97090333-4.8545189 1.94180779-7.28177778 0.97090333-1.94180779 1.94180779-4.36906667 3.39816334-6.31087445 1.45635555-2.42725888 3.39816334-4.36906667 4.85451776-6.31087332 1.94180779-1.45635555 3.88361443-3.39816334 5.82542222-4.8545189 2.42725888-0.97090333 4.36906667-2.42725888 6.79632669-3.39816334 2.42725888-0.97090333 4.8545189-1.45635555 7.28177777-1.94180664 2.42725888-0.48545223 4.8545189-0.97090333 7.28177778-0.97090447h755.3630811c2.42725888 0 4.8545189 0.48545223 7.28177778 0.97090447 2.91271111 0.48545223 4.8545189 0.97090333 7.28177778 1.94180664 2.42725888 0.97090333 4.8545189 2.42725888 6.79632555 3.39816334 1.94180779 1.45635555 3.88361443 3.39816334 5.82542222 4.8545189 1.94180779 1.94180779 3.39816334 3.88361443 4.8545189 6.31087332 1.45635555 1.94180779 2.42725888 4.36906667 3.39816334 6.31087445 0.97090333 2.42725888 1.94180779 4.8545189 2.42725888 7.28177778 0.48545223 2.91271111 0.48545223 5.33996999 0.48545223 7.76723001v504.86992554c0 2.42725888 0 4.8545189-0.48545223 7.76723002-0.48545223 2.42725888-1.45635555 4.8545189-2.42725888 7.28177777-0.97090333 1.94180779-1.94180779 4.36906667-3.39816334 6.31087332-1.45635555 2.42725888-2.91271111 4.36906667-4.8545189 6.31087445-1.94180779 1.45635555-3.88361443 3.39816334-5.82542222 4.8545189-1.94180779 0.97090333-4.36906667 2.42725888-6.79632555 3.3981622-2.42725888 0.97090333-4.36906667 1.45635555-7.28177778 1.94180779-2.42725888 0.48545223-4.8545189 0.97090333-7.28177778 0.97090333H134.26991445c-2.42725888 0-4.8545189-0.48545223-7.28177778-0.97090333-2.42725888-0.48545223-4.8545189-0.97090333-7.28177777-1.94180779-2.42725888-0.97090333-4.36906667-2.42725888-6.79632669-3.3981622-1.94180779-1.45635555-3.88361443-3.39816334-5.82542222-4.8545189-1.45635555-1.94180779-3.39816334-3.88361443-4.85451776-6.31087445-1.45635555-1.94180779-2.42725888-4.36906667-3.39816334-6.31087332-0.97090333-2.42725888-1.45635555-4.8545189-1.94180779-7.28177777-0.48545223-2.91271111-0.97090333-5.33996999-0.97090332-7.76723002z m77.18684444-466.03377777v427.19763001h678.17623666v-427.19763001zM304.08097223 803.27111111c-2.91271111 0-5.33996999 0.48545223-8.25268224 0.97090332-2.91271111 0.48545223-5.33996999 0.97090333-7.76722887 2.42726002-2.42725888 0.97090333-4.8545189 1.94180779-7.28177778 3.39816221-2.42725888 1.94180779-4.36906667 3.39816334-6.31087445 5.33997113-1.94180779 1.94180779-3.39816334 3.88361443-5.33996999 6.31087331-1.45635555 2.42725888-2.42725888 4.8545189-3.39816335 7.28177778-1.45635555 2.42725888-1.94180779 4.8545189-2.42725888 7.76723001-0.48545223 2.91271111-0.97090333 5.33996999-0.97090446 8.2526811 0 2.42725888 0.48545223 5.33996999 0.97090446 7.76723001 0.48545223 2.91271111 0.97090333 5.33996999 2.42725888 8.2526811 0.97090333 2.42725888 1.94180779 4.8545189 3.39816335 6.79632669 1.94180779 2.42725888 3.39816334 4.36906667 5.33996999 6.31087331 1.94180779 1.94180779 3.88361443 3.88361443 6.31087445 5.33997113s4.8545189 2.91271111 7.28177778 3.88361444c2.42725888 0.97090333 4.8545189 1.94180779 7.76722887 2.42725888 2.91271111 0.48545223 5.33996999 0.48545223 8.25268224 0.48545223h416.03223666c2.42725888 0 5.33996999 0 8.2526811-0.48545223 2.42725888-0.48545223 4.8545189-1.45635555 7.76723001-2.42725888 2.42725888-0.97090333 4.8545189-2.42725888 6.79632555-3.88361444 2.42725888-1.45635555 4.36906667-3.39816334 6.31087445-5.33997113 1.94180779-1.94180779 3.88361443-3.88361443 5.33996999-6.31087331 1.45635555-1.94180779 2.91271111-4.36906667 3.88361558-6.79632669 0.97090333-2.91271111 1.94180779-5.33996999 2.42725888-8.2526811 0.48545223-2.42725888 0.97090333-5.33996999 0.97090332-7.76723001 0-2.91271111-0.48545223-5.33996999-0.97090332-8.2526811a36.40888889 36.40888889 0 0 0-2.42725888-7.76723001c-0.97090333-2.42725888-2.42725888-4.8545189-3.88361558-7.28177778-1.45635555-2.42725888-3.39816334-4.36906667-5.33996999-6.31087331-1.94180779-1.94180779-3.88361443-3.39816334-6.31087445-5.33997113a29.61256334 29.61256334 0 0 0-6.79632555-3.39816221 28.25329778 28.25329778 0 0 0-7.76723001-2.42726002c-2.91271111-0.48545223-5.82542222-0.97090333-8.2526811-0.97090332h-416.03223666z" p-id="1575"></path><path d="M256.36105443 273.20623445c-1.94180779 0.48545223-3.88361443 0.97090333-5.82542222 1.94180665-1.94180779 0.97090333-3.88361443 1.45635555-5.33996999 2.91271111-1.94180779 0.97090333-3.39816334 2.42725888-4.85451889 3.88361558s-2.91271111 2.91271111-3.88361444 4.85451776c-1.45635555 1.45635555-1.94180779 3.39816334-2.91271111 5.33997112-0.97090333 1.94180779-1.45635555 3.88361443-1.94180779 5.82542223-0.48545223 1.94180779-0.48545223 3.88361443-0.48545109 5.82542222v62.62328889c0 1.94180779 0 3.88361443 0.48545109 5.82542222 0.48545223 2.42725888 0.97090333 4.36906667 1.94180779 5.82542222 0.97090333 1.94180779 1.45635555 3.88361443 2.91271111 5.82542222 0.97090333 1.45635555 2.42725888 2.91271111 3.88361444 4.36906667s2.91271111 2.91271111 4.85451889 3.88361444c1.45635555 1.45635555 3.39816334 2.42725888 5.33996999 2.91271111 1.94180779 0.97090333 3.88361443 1.45635555 5.82542222 1.94180778 1.94180779 0.48545223 3.88361443 0.48545223 5.82542223 0.4854511 2.42725888 0 4.36906667 0 6.31087445-0.4854511 1.94180779-0.48545223 3.88361443-0.97090333 5.82542222-1.94180778a14.56355555 14.56355555 0 0 0 5.33997-2.91271111c1.94180779-0.97090333 3.39816334-2.42725888 4.85451889-3.88361444s2.42725888-2.91271111 3.88361444-4.36906667l2.91271111-5.82542222c0.48545223-1.45635555 1.45635555-3.39816334 1.45635556-5.82542222 0.48545223-1.94180779 0.97090333-3.88361443 0.97090446-5.82542222v-31.0689189h31.06891776a31.21455445 31.21455445 0 0 0 21.84533333-9.22358556c2.91271111-2.91271111 5.33996999-6.31087445 6.79632669-10.19448889 1.94180779-3.88361443 2.42725888-7.76723001 2.42725888-12.13629554 0-3.88361443-0.48545223-7.76723001-2.42725888-11.65084445a28.93292999 28.93292999 0 0 0-6.79632669-10.19448888 31.26309888 31.26309888 0 0 0-21.84533333-9.22358557h-62.62328889c-1.94180779 0-3.88361443 0-5.82542223 0.48545223zM773.94981888 275.1480411c1.45635555 0.97090333 3.39816334 1.94180779 5.33997113 2.91271111 1.45635555 0.97090333 3.39816334 1.94180779 4.36906666 3.88361558 1.94180779 0.97090333 2.91271111 2.91271111 3.88361444 4.36906666 0.97090333 1.94180779 1.94180779 3.88361443 2.91271111 5.33997 0.97090333 2.42725888 1.45635555 4.36906667 1.94180779 5.82542222 0.48545223 2.42725888 0.48545223 4.36906667 0.48545109 6.31087445v62.62328889c0 1.94180779 0 3.88361443-0.48545109 6.31087332-0.48545223 1.45635555-0.97090333 3.39816334-1.94180779 5.82542222-0.97090333 1.45635555-1.94180779 3.39816334-2.91271111 5.33997112-0.97090333 1.45635555-1.94180779 3.39816334-3.88361444 4.36906667-0.97090333 1.94180779-2.91271111 2.91271111-4.36906666 3.88361444-1.94180779 1.45635555-3.88361443 1.94180779-5.33997113 2.91271111-2.42725888 0.97090333-4.36906667 1.45635555-5.82542222 1.94180778-2.42725888 0.48545223-4.36906667 0.48545223-6.31087332 0.4854511-2.42725888 0-4.36906667 0-6.31087445-0.4854511-1.94180779-0.48545223-3.88361443-0.97090333-5.82542222-1.94180778-1.94180779-0.97090333-3.88361443-1.45635555-5.33997-2.91271111a12.33047666 12.33047666 0 0 1-4.85451889-3.88361444 9.80612779 9.80612779 0 0 1-3.39816335-4.36906667 19.75788999 19.75788999 0 0 1-2.9127111-5.33997112c-0.97090333-2.42725888-1.94180779-4.36906667-2.42725888-5.82542222-0.48545223-2.42725888-0.48545223-4.36906667-0.48545224-6.31087332v-31.0689189h-31.06891776c-3.88361443 0-8.2526811-0.97090333-12.13629667-2.91271111a28.93292999 28.93292999 0 0 1-16.50536335-16.50536334 33.78744889 33.78744889 0 0 1-2.42725888-12.13629554c0-3.88361443 0.97090333-8.2526811 2.42725888-12.13629667a32.03982222 32.03982222 0 0 1 6.79632669-9.70903666c2.91271111-2.91271111 6.31087445-4.8545189 9.70903666-6.79632669 3.88361443-1.45635555 8.2526811-2.42725888 12.13629667-2.42725888h62.62328889c1.94180779 0 3.88361443 0 6.31087332 0.48545223 1.45635555 0.48545223 3.39816334 0.97090333 5.82542222 1.94180665zM767.63894557 584.33232555c1.94180779-0.48545223 3.88361443-0.97090333 5.82542222-1.94180665 1.94180779-0.97090333 3.88361443-1.45635555 5.33996999-2.91271111 1.94180779-0.97090333 3.39816334-2.42725888 4.85451889-3.88361558s2.91271111-2.91271111 3.88361444-4.85451776c1.45635555-1.45635555 1.94180779-3.39816334 2.91271111-5.33997112 0.97090333-1.94180779 1.45635555-3.88361443 1.94180779-5.82542223 0.48545223-1.94180779 0.48545223-3.88361443 0.48545109-5.82542222v-62.62328889c0-1.94180779 0-3.88361443-0.48545109-5.82542222a16.35972779 16.35972779 0 0 0-1.94180779-5.82542222c-0.97090333-1.94180779-1.45635555-3.88361443-2.91271111-5.82542222a31.40873443 31.40873443 0 0 0-3.88361444-4.36906667 19.02971221 19.02971221 0 0 0-4.85451889-3.88361444 11.55375445 11.55375445 0 0 0-5.33996999-2.91271111 27.37948445 27.37948445 0 0 0-5.82542222-1.94180778c-1.94180779-0.48545223-3.88361443-0.48545223-5.82542223-0.4854511-2.42725888 0-4.36906667 0-6.31087445 0.4854511-1.94180779 0.48545223-3.88361443 0.97090333-5.82542222 1.94180778a14.56355555 14.56355555 0 0 0-5.33997 2.91271111c-1.94180779 0.97090333-3.39816334 2.42725888-4.85451889 3.88361444s-2.42725888 2.91271111-3.88361444 4.36906667l-2.91271111 5.82542222c-0.48545223 1.45635555-1.45635555 3.39816334-1.45635556 5.82542222-0.48545223 1.94180779-0.97090333 3.88361443-0.97090446 5.82542222v31.0689189h-31.06891776a31.26309888 31.26309888 0 0 0-21.84533333 9.22358556c-2.91271111 2.91271111-5.33996999 6.31087445-6.79632669 10.19448889-1.94180779 3.88361443-2.42725888 7.76723001-2.42725888 12.13629554 0 3.88361443 0.48545223 7.76723001 2.42725888 11.65084445 1.45635555 3.88361443 3.88361443 7.28177778 6.79632669 10.19448888a31.26309888 31.26309888 0 0 0 21.84533333 9.22358557h62.62328889c1.94180779 0 3.88361443 0 5.82542223-0.48545223zM256.36105443 584.33232555a27.37948445 27.37948445 0 0 1-5.82542222-1.94180665c-1.94180779-0.97090333-3.88361443-1.45635555-5.33996999-2.91271111-1.94180779-0.97090333-3.39816334-2.42725888-4.85451889-3.88361558a19.02971221 19.02971221 0 0 1-3.88361444-4.85451776c-1.45635555-1.45635555-1.94180779-3.39816334-2.91271111-5.33997112-0.97090333-1.94180779-1.45635555-3.88361443-1.94180779-5.82542223-0.48545223-1.94180779-0.48545223-3.88361443-0.48545109-5.82542222v-62.62328889c0-1.94180779 0-3.88361443 0.48545109-5.82542222 0.48545223-2.42725888 0.97090333-4.36906667 1.94180779-5.82542222 0.97090333-1.94180779 1.45635555-3.88361443 2.91271111-5.82542222 0.97090333-1.45635555 2.42725888-2.91271111 3.88361444-4.36906667s2.91271111-2.91271111 4.85451889-3.88361444c1.45635555-1.45635555 3.39816334-2.42725888 5.33996999-2.91271111 1.94180779-0.97090333 3.88361443-1.45635555 5.82542222-1.94180778 1.94180779-0.48545223 3.88361443-0.48545223 5.82542223-0.4854511a25.63185778 25.63185778 0 0 1 12.13629667 2.42725888 14.56355555 14.56355555 0 0 1 5.33997 2.91271111c1.94180779 0.97090333 3.39816334 2.42725888 4.85451889 3.88361444s2.42725888 2.91271111 3.88361444 4.36906667l2.91271111 5.82542222c0.48545223 1.45635555 1.45635555 3.39816334 1.45635556 5.82542222 0.48545223 1.94180779 0.97090333 3.88361443 0.97090446 5.82542222v31.0689189h31.06891776a31.26309888 31.26309888 0 0 1 21.84533333 9.22358556c2.91271111 2.91271111 5.33996999 6.31087445 6.79632669 10.19448889 1.94180779 3.88361443 2.42725888 7.76723001 2.42725888 12.13629554 0 3.88361443-0.48545223 7.76723001-2.42725888 11.65084445-1.45635555 3.88361443-3.88361443 7.28177778-6.79632669 10.19448888a31.26309888 31.26309888 0 0 1-21.84533333 9.22358557h-62.62328889c-1.94180779 0-3.88361443 0-5.82542223-0.48545223z" p-id="1576"></path></svg>