<?xml version="1.0" standalone="no"?><!DOCTYPE svg PUBLIC "-//W3C//DTD SVG 1.1//EN" "http://www.w3.org/Graphics/SVG/1.1/DTD/svg11.dtd"><svg t="1689659786596" class="icon" viewBox="0 0 1024 1024" version="1.1" xmlns="http://www.w3.org/2000/svg" p-id="1902" xmlns:xlink="http://www.w3.org/1999/xlink" width="200" height="200"><path d="M761.6 256c-53.44 0-96.832 18.432-129.792 55.488-32.192 34.944-48 80.384-48.768 136.512v5.76h90.112l0.192-5.504c1.28-37.952 9.28-66.112 23.104-83.968l0.128-0.192c13.568-18.816 33.984-28.544 62.272-28.544 26.944 0 46.272 6.016 59.008 17.728 12.032 11.648 19.136 29.888 19.136 55.616 0 25.792-10.112 50.56-30.272 73.792-13.12 14.08-34.368 32.32-65.28 54.144-55.936 39.168-93.632 69.76-111.744 91.008-33.28 38.208-49.28 82.88-49.28 134.4V768h347.52v-82.304h-234.048c12.672-21.44 40-46.912 83.648-76.16 47.296-32.256 81.536-58.688 100.928-79.872l0.064-0.064c31.872-35.968 48.704-75.776 48.704-120.064 0-45.44-15.36-82.112-46.4-110.784C849.152 270.08 809.28 256 761.6 256z m-575.36 9.6H95.872V768h90.24V550.72h233.216V768h90.24V265.6h-90.24v204.928H186.24V265.6z" fill="#5A5A5A" p-id="1903"></path></svg>