<?xml version="1.0" standalone="no"?><!DOCTYPE svg PUBLIC "-//W3C//DTD SVG 1.1//EN" "http://www.w3.org/Graphics/SVG/1.1/DTD/svg11.dtd"><svg t="1689659795036" class="icon" viewBox="0 0 1024 1024" version="1.1" xmlns="http://www.w3.org/2000/svg" p-id="2050" xmlns:xlink="http://www.w3.org/1999/xlink" width="200" height="200"><path d="M734.08 288c-44.16 0-81.28 11.52-110.208 36.032-30.848 24.64-47.36 59.008-51.2 102.528l-0.384 5.312h81.28l0.384-4.48c2.432-24.576 10.688-42.112 24.192-53.44h0.128c12.928-11.328 31.232-17.088 56.384-17.088 24.576 0 42.304 5.184 53.952 14.72 10.432 9.472 16.256 23.36 16.256 43.008 0 19.584-6.4 33.92-17.92 43.456-12.352 9.6-30.72 14.784-56 14.784h-36.032v61.824h36.032c27.904 0 48 5.248 61.568 16h0.064c13.248 10.112 20.928 26.24 20.928 49.28a61.888 61.888 0 0 1-20.096 46.72c-14.848 13.696-35.712 21.056-62.464 21.056-24.256 0-43.264-6.784-57.6-19.392h-0.064c-16-13.696-24.32-33.472-25.472-59.776l-0.192-4.672H563.648l0.448 5.248c3.776 48.256 21.504 86.208 53.632 112.064 28.992 23.36 67.264 34.816 113.856 34.816 49.152 0 89.408-13.312 120.128-39.68 29.568-25.792 44.288-59.008 44.288-99.264 0-25.792-7.68-47.68-23.488-64.64-11.84-13.44-28.416-23.68-48.64-31.232 18.56-7.68 33.344-18.112 43.968-31.36 13.12-16.384 19.52-36.672 19.52-60.544 0-37.952-14.144-67.776-42.048-89.472-28.352-21.568-66.048-31.808-111.296-31.808z m-523.52 8.32H128v431.36h82.56V541.184h213.12v186.624h82.56V296.256H423.68v176H210.56v-176z" fill="#5A5A5A" p-id="2051"></path></svg>