<?xml version="1.0" standalone="no"?><!DOCTYPE svg PUBLIC "-//W3C//DTD SVG 1.1//EN" "http://www.w3.org/Graphics/SVG/1.1/DTD/svg11.dtd"><svg t="1689659809334" class="icon" viewBox="0 0 1024 1024" version="1.1" xmlns="http://www.w3.org/2000/svg" p-id="2340" xmlns:xlink="http://www.w3.org/1999/xlink" width="200" height="200"><path d="M257.024 320H192.064v376.704h64.96V531.84h183.36v164.8h64.96V320H440.32v155.392H257.024V320z m557.952 0H585.344l-20.608 214.016h60.16l0.64-1.152c7.04-12.672 16.576-21.76 29.12-27.776 11.008-5.568 24.64-8.128 40.448-8.128 23.488 0 41.472 6.656 53.376 20.672 11.968 13.568 18.56 32.832 18.56 57.472 0 22.4-7.488 40.064-21.504 53.12a77.952 77.952 0 0 1-54.016 19.84c-19.904 0-35.52-4.672-46.464-12.672-12.8-9.472-20.416-24-22.976-43.904l-0.192-1.92h-63.872l0.192 2.368c2.624 35.008 17.408 63.232 44.928 83.968 24.256 18.56 53.76 28.096 87.872 28.096a148.48 148.48 0 0 0 96.768-33.344c29.44-24.96 44.288-56.832 44.288-96.064 0-40.576-11.52-72.96-33.792-96.448-22.208-23.424-51.328-35.072-86.528-35.072-16.832 0-32.128 2.624-45.888 7.936a103.296 103.296 0 0 0-37.632 23.04l9.792-96h176.96V320zM560.512 593.92l-0.128-1.664v1.728h0.128z m-0.128-2.112h2.112v-0.192l-2.112 0.192z m59.52 0l0.064 0.256v-0.256zM812.8 373.696v2.176h0.064V373.76z m-2.112-51.52h2.112v2.176h0.064v-2.176h-2.176z" fill="#5A5A5A" p-id="2341"></path></svg>