<?xml version="1.0" standalone="no"?><!DOCTYPE svg PUBLIC "-//W3C//DTD SVG 1.1//EN" "http://www.w3.org/Graphics/SVG/1.1/DTD/svg11.dtd"><svg t="1688354828215" class="icon" viewBox="0 0 1024 1024" version="1.1" xmlns="http://www.w3.org/2000/svg" p-id="1714" xmlns:xlink="http://www.w3.org/1999/xlink" width="200" height="200"><path d="M277.9363552 199.74826667c0 14.19946667 3.77742187 27.48871147 10.37653333 39.00302186H165.20533333c-2.73066667 0-5.46133333 0-8.192-0.4551104s-5.46133333-1.36533333-8.192-2.27555626c-2.73066667-0.91022187-5.00622187-2.2755552-7.73688853-3.64088854a34.36088853 34.36088853 0 0 1-6.37155627-5.00622186c-2.2755552-1.8204448-3.64088853-3.64088853-5.46133333-5.9164448-1.36533333-1.8204448-2.73066667-4.096-4.096-6.3715552-0.91022187-2.73066667-1.8204448-5.00622187-2.2755552-7.7368896a39.82222187 39.82222187 0 0 1-0.91022187-7.28177707c0-2.73066667 0.45511147-5.00622187 0.91022187-7.7368896a34.13333333 34.13333333 0 0 1 2.2755552-7.28177707l4.096-6.82666666c1.8204448-2.2755552 3.18577813-4.096 5.46133333-5.9164448 1.8204448-1.8204448 4.096-3.18577813 6.37155627-5.00622187 2.73066667-1.36533333 5.00622187-2.2755552 7.73688853-3.18577813 2.73066667-1.36533333 5.46133333-1.8204448 8.192-2.2755552 2.73066667-0.45511147 5.46133333-0.91022187 8.192-0.91022294h123.24408854c-6.64462187 11.42328853-10.4675552 24.71253333-10.4675552 38.82097814z m145.72657813 39.00302186a77.91502187 77.91502187 0 0 0-0.09102186-77.824h435.17724373c2.73066667 0 5.46133333 0.45511147 8.64711147 0.91022294 2.73066667 0.45511147 5.46133333 0.91022187 7.73688853 2.2755552 2.73066667 0.91022187 5.46133333 1.8204448 7.7368896 3.18577813 2.2755552 1.8204448 4.55111147 3.18577813 6.3715552 5.00622187 2.2755552 1.8204448 4.096 3.64088853 5.46133333 5.9164448 1.8204448 2.2755552 3.18577813 4.55111147 4.096 6.82666666 0.91022187 2.2755552 1.8204448 4.55111147 2.2755552 7.28177707 0.91022187 2.73066667 0.91022187 5.00622187 0.91022294 7.7368896 0 2.2755552 0 5.00622187-0.91022294 7.28177707-0.45511147 2.73066667-1.36533333 5.00622187-2.2755552 7.7368896a19.11466667 19.11466667 0 0 1-4.096 6.3715552 22.3004448 22.3004448 0 0 1-5.46133333 5.9164448c-1.8204448 1.8204448-4.096 3.64088853-6.3715552 5.00622186-2.2755552 1.36533333-5.00622187 2.73066667-7.7368896 3.64088854-2.2755552 0.91022187-5.00622187 1.8204448-7.73688853 2.27555626-3.18577813 0.45511147-5.9164448 0.45511147-8.64711147 0.4551104z" p-id="1715"></path><path d="M401.408 91.9779552c14.1084448 5.9164448 26.3964448 14.5635552 37.31911147 25.03111147 10.92266667 10.92266667 19.11466667 23.21066667 25.0311104 37.31911146 6.3715552 14.5635552 9.10222187 29.58222187 9.10222293 45.5111104s-2.73066667 30.9475552-9.10222293 45.51111147c-5.9164448 14.1084448-14.1084448 26.3964448-25.0311104 37.31911147-10.92266667 10.92266667-23.21066667 19.11466667-37.31911147 25.0311104-14.5635552 6.3715552-29.58222187 9.10222187-45.51111147 9.10222293s-30.9475552-2.73066667-45.5111104-9.10222293c-14.1084448-5.9164448-26.3964448-14.1084448-37.31911146-25.0311104-10.4675552-10.92266667-19.11466667-23.21066667-25.03111147-37.31911147-5.9164448-14.5635552-9.10222187-29.58222187-9.10222187-45.51111147s3.18577813-30.9475552 9.10222187-45.5111104c5.9164448-14.1084448 14.5635552-26.3964448 25.03111147-37.31911146 10.92266667-10.4675552 23.21066667-19.11466667 37.31911146-25.03111147 14.5635552-5.9164448 29.58222187-9.10222187 45.5111104-9.10222187s30.9475552 3.18577813 45.51111147 9.10222187z m-84.65066667 107.86133333c0 10.92266667 4.096 20.02488853 11.83288854 27.76177814a39.00302187 39.00302187 0 0 0 66.44622293-27.76177814c0-10.4675552-4.096-19.56977813-11.37777813-27.30666666a37.8652448 37.8652448 0 0 0-55.0684448 0c-7.73688853 7.73688853-11.83288853 16.83911147-11.83288854 27.30666666zM512 511.8179552c0 14.19946667 3.77742187 27.48871147 10.37653333 39.00302293h-357.26222186c-2.73066667 0-5.46133333 0-8.192-0.45511146s-5.46133333-1.36533333-8.192-2.2755552c-2.73066667-0.91022187-5.00622187-2.2755552-7.7368896-3.6408896a34.36088853 34.36088853 0 0 1-6.3715552-5.00622187c-2.2755552-1.8204448-3.64088853-3.64088853-5.46133334-5.9164448-1.36533333-1.8204448-2.73066667-4.096-4.096-6.3715552-0.91022187-2.73066667-1.8204448-5.00622187-2.2755552-7.73688853a39.82222187 39.82222187 0 0 1-0.91022293-7.28177814c0-2.73066667 0.45511147-5.00622187 0.91022293-7.73688853a34.13333333 34.13333333 0 0 1 2.2755552-7.28177813l4.096-6.82666667c1.8204448-2.2755552 3.18577813-4.096 5.46133334-5.9164448 1.8204448-1.8204448 4.096-3.18577813 6.3715552-5.00622187 2.73066667-1.36533333 5.00622187-2.2755552 7.7368896-3.18577813 2.73066667-1.36533333 5.46133333-1.8204448 8.192-2.2755552 2.73066667-0.45511147 5.46133333-0.91022187 8.192-0.91022187h357.35324373c-6.64462187 11.42328853-10.4675552 24.71253333-10.4675552 38.82097707z m145.72657813 39.00302293a77.91502187 77.91502187 0 0 0-0.09102293-77.824h201.1136c2.73066667 0 5.46133333 0.45511147 8.64711147 0.91022187 2.73066667 0.45511147 5.46133333 0.91022187 7.73688853 2.2755552 2.73066667 0.91022187 5.46133333 1.8204448 7.7368896 3.18577813 2.2755552 1.8204448 4.55111147 3.18577813 6.3715552 5.00622187 2.2755552 1.8204448 4.096 3.64088853 5.46133333 5.9164448 1.8204448 2.2755552 3.18577813 4.55111147 4.096 6.82666667 0.91022187 2.2755552 1.8204448 4.55111147 2.2755552 7.28177813 0.91022187 2.73066667 0.91022187 5.00622187 0.91022294 7.73688853 0 2.2755552 0 5.00622187-0.91022294 7.28177814-0.45511147 2.73066667-1.36533333 5.00622187-2.2755552 7.73688853a19.11466667 19.11466667 0 0 1-4.096 6.3715552 22.3004448 22.3004448 0 0 1-5.46133333 5.9164448c-1.8204448 1.8204448-4.096 3.64088853-6.3715552 5.00622187-2.2755552 1.36533333-5.00622187 2.73066667-7.7368896 3.6408896-2.2755552 0.91022187-5.00622187 1.8204448-7.73688853 2.2755552-3.18577813 0.45511147-5.9164448 0.45511147-8.64711147 0.45511146z" p-id="1716"></path><path d="M635.4716448 404.0931552c14.1084448 5.9164448 26.3964448 14.5635552 37.3191104 25.03111147 10.92266667 10.92266667 19.11466667 23.21066667 25.03111147 37.31911146 6.3715552 14.5635552 9.10222187 29.58222187 9.10222186 45.5111104s-2.73066667 30.9475552-9.10222186 45.51111147c-5.9164448 14.1084448-14.1084448 26.3964448-25.03111147 37.31911147-10.92266667 10.92266667-23.21066667 19.11466667-37.3191104 25.0311104-14.5635552 6.3715552-29.58222187 9.10222187-45.51111147 9.10222293s-30.9475552-2.73066667-45.51111146-9.10222293c-14.1084448-5.9164448-26.3964448-14.1084448-37.3191104-25.0311104-10.4675552-10.92266667-19.11466667-23.21066667-25.03111147-37.31911147-5.9164448-14.5635552-9.10222187-29.58222187-9.10222187-45.51111147s3.18577813-30.9475552 9.10222187-45.5111104c5.9164448-14.1084448 14.5635552-26.3964448 25.03111147-37.31911146 10.92266667-10.4675552 23.21066667-19.11466667 37.3191104-25.03111147 14.5635552-5.9164448 29.58222187-9.10222187 45.51111146-9.10222187s30.9475552 3.18577813 45.51111147 9.10222187z m-84.65066667 107.86133333c0 10.92266667 4.096 20.02488853 11.83288854 27.76177814a39.00302187 39.00302187 0 0 0 66.44622186-27.76177814c0-10.4675552-4.096-19.56977813-11.37777706-27.30666666a37.8652448 37.8652448 0 0 0-55.0684448 0c-7.73688853 7.73688853-11.83288853 16.83911147-11.83288854 27.30666666zM277.9363552 862.89066667c0 14.19946667 3.77742187 27.53422187 10.37653333 39.00302186H165.20533333c-2.73066667 0-5.46133333 0-8.192-0.4551104s-5.46133333-1.36533333-8.192-2.27555626c-2.73066667-0.91022187-5.00622187-2.2755552-7.73688853-3.64088854a34.36088853 34.36088853 0 0 1-6.37155627-5.00622186c-2.2755552-1.8204448-3.64088853-3.64088853-5.46133333-5.9164448-1.36533333-1.8204448-2.73066667-4.096-4.096-6.3715552-0.91022187-2.73066667-1.8204448-5.00622187-2.2755552-7.7368896a39.82222187 39.82222187 0 0 1-0.91022187-7.28177707c0-2.73066667 0.45511147-5.00622187 0.91022187-7.7368896a34.13333333 34.13333333 0 0 1 2.2755552-7.28177707l4.096-6.82666666c1.8204448-2.2755552 3.18577813-4.096 5.46133333-5.9164448 1.8204448-1.8204448 4.096-3.18577813 6.37155627-5.00622187 2.73066667-1.36533333 5.00622187-2.2755552 7.73688853-3.18577813 2.73066667-1.36533333 5.46133333-1.8204448 8.192-2.2755552 2.73066667-0.45511147 5.46133333-0.91022187 8.192-0.91022294h123.24408854c-6.64462187 11.4688-10.4675552 24.71253333-10.4675552 38.82097814z m145.72657813 39.00302186a77.91502187 77.91502187 0 0 0-0.09102186-77.824h435.17724373c2.73066667 0 5.46133333 0.45511147 8.64711147 0.91022294 2.73066667 0.45511147 5.46133333 0.91022187 7.73688853 2.2755552 2.73066667 0.91022187 5.46133333 1.8204448 7.7368896 3.18577813 2.2755552 1.8204448 4.55111147 3.18577813 6.3715552 5.00622187 2.2755552 1.8204448 4.096 3.64088853 5.46133333 5.9164448 1.8204448 2.2755552 3.18577813 4.55111147 4.096 6.82666666 0.91022187 2.2755552 1.8204448 4.55111147 2.2755552 7.28177707 0.91022187 2.73066667 0.91022187 5.00622187 0.91022294 7.7368896 0 2.2755552 0 5.00622187-0.91022294 7.28177707-0.45511147 2.73066667-1.36533333 5.00622187-2.2755552 7.7368896a19.11466667 19.11466667 0 0 1-4.096 6.3715552 22.3004448 22.3004448 0 0 1-5.46133333 5.9164448c-1.8204448 1.8204448-4.096 3.64088853-6.3715552 5.00622186-2.2755552 1.36533333-5.00622187 2.73066667-7.7368896 3.64088854-2.2755552 0.91022187-5.00622187 1.8204448-7.73688853 2.27555626-3.18577813 0.45511147-5.9164448 0.45511147-8.64711147 0.4551104z" p-id="1717"></path><path d="M401.408 716.1628448c14.1084448 5.9164448 26.3964448 14.5635552 37.31911147 25.0311104 10.92266667 10.92266667 19.11466667 23.21066667 25.0311104 37.31911147 6.3715552 14.5635552 9.10222187 29.58222187 9.10222293 45.51111146s-2.73066667 30.9475552-9.10222293 45.5111104c-5.9164448 14.1084448-14.1084448 26.3964448-25.0311104 37.31911147-10.92266667 10.92266667-23.21066667 19.11466667-37.31911147 25.03111147-14.5635552 6.3715552-29.58222187 9.10222187-45.51111147 9.10222186s-30.9475552-2.73066667-45.5111104-9.10222186c-14.1084448-5.9164448-26.3964448-14.1084448-37.31911146-25.03111147-10.4675552-10.92266667-19.11466667-23.21066667-25.03111147-37.31911147-5.9164448-14.5635552-9.10222187-29.58222187-9.10222187-45.5111104s3.18577813-30.9475552 9.10222187-45.51111146c5.9164448-14.1084448 14.5635552-26.3964448 25.03111147-37.31911147 10.92266667-10.4675552 23.21066667-19.11466667 37.31911146-25.0311104 14.5635552-5.9164448 29.58222187-9.10222187 45.5111104-9.10222293s30.9475552 3.18577813 45.51111147 9.10222293z m-84.65066667 107.86133333c0 10.92266667 4.096 20.02488853 11.83288854 27.76177707a39.00302187 39.00302187 0 0 0 66.44622293-27.76177707c0-10.4675552-4.096-19.56977813-11.37777813-27.30666666a37.8652448 37.8652448 0 0 0-55.0684448 0c-7.73688853 7.73688853-11.83288853 16.83911147-11.83288854 27.30666666z" p-id="1718"></path></svg>