<?xml version="1.0" standalone="no"?><!DOCTYPE svg PUBLIC "-//W3C//DTD SVG 1.1//EN" "http://www.w3.org/Graphics/SVG/1.1/DTD/svg11.dtd"><svg t="1687236263134" class="icon" viewBox="0 0 1024 1024" version="1.1" xmlns="http://www.w3.org/2000/svg" p-id="804" xmlns:xlink="http://www.w3.org/1999/xlink" width="200" height="200"><path d="M512 34.13333333C248.49066667 34.13333333 34.13333333 248.49066667 34.13333333 512s214.35733333 477.86666667 477.86666667 477.86666667 477.86666667-214.35733333 477.86666667-477.86666667S775.50933333 34.13333333 512 34.13333333zM671.744 537.56586667l-170.93973333 169.0624c-6.656 6.5536-15.32586667 9.86453333-23.99573334 9.86453333-8.8064 0-17.6128-3.3792-24.2688-10.1376-13.24373333-13.4144-13.14133333-34.98666667 0.27306667-48.26453333l146.56853333-144.96426667-145.37386666-145.78346667c-13.312-13.34613333-13.27786667-34.95253333 0.06826666-48.26453333 13.34613333-13.34613333 34.95253333-13.27786667 48.26453334 0.06826667l169.50613333 169.984c0.03413333 0.03413333 0.03413333 0.06826667 0.06826667 0.1024s0.06826667 0.03413333 0.1024 0.06826666c3.14026667 3.1744 5.39306667 6.8608 7.03146666 10.71786667 0.06826667 0.13653333 0.23893333 0.27306667 0.27306667 0.4096C684.37333333 512.8192 681.84746667 527.5648 671.744 537.56586667z" p-id="805"></path></svg>